<svg width="90" height="55" viewBox="0 0 90 55" fill="none" xmlns="http://www.w3.org/2000/svg">
<path d="M88.5043 2.88438C87.6755 2.88438 87.0042 3.52976 87.0042 4.32657V10.0953H84.004V8.65313C84.004 4.67629 80.6401 1.44219 76.5037 1.44219H64.5031C64.5031 0.645381 63.8318 0 63.003 0H57.0027C56.1739 0 55.5026 0.645381 55.5026 1.44219H25.5011C25.5011 0.645381 24.8298 0 24.001 0H18.0007C17.1719 0 16.5006 0.645381 16.5006 1.44219V6.11128L1.10626 10.1494C0.453728 10.3189 0 10.8885 0 11.5411C0 12.1901 0.453776 12.7598 1.10626 12.9328L16.5006 16.9709V21.64C16.5006 22.4368 17.1719 23.0822 18.0007 23.0822H24.001C24.8298 23.0822 25.5011 22.4368 25.5011 21.64H55.5026C55.5026 22.4368 56.1739 23.0822 57.0027 23.0822H63.003C63.8318 23.0822 64.5031 22.4368 64.5031 21.64H66.9482L51.6921 43.4607C51.4708 43.778 51.3883 44.1674 51.4633 44.5424C51.5383 44.9174 51.7671 45.249 52.1008 45.4618C53.3796 46.2874 54.8348 46.684 56.2748 46.684C58.6899 46.684 61.0639 45.5663 62.5114 43.4968L73.4992 27.7772V47.5967C73.4992 51.5736 76.8631 54.8077 80.9995 54.8077H82.4996C83.3284 54.8077 83.9997 54.1623 83.9997 53.3655V12.9842H88.4999C89.3287 12.9842 90 12.3388 90 11.542V4.33108C90 3.53427 89.3287 2.88889 88.4999 2.88889L88.5043 2.88438ZM16.5006 13.9752L7.20017 11.5379L16.5006 9.10061V13.9789V13.9752ZM22.5009 20.191H19.5008V2.88475H22.5009V20.191ZM31.5014 4.32648H49.5023V10.0952H31.5014V4.32648ZM55.5026 18.7484H25.5011V15.864H55.5026V18.7484ZM61.5029 20.1906H58.5028V2.88429H61.5029V20.1906ZM60.0216 41.8811C58.9303 43.4422 56.9577 44.102 55.1651 43.6586L70.136 22.2422C71.0586 22.6785 71.8537 23.3203 72.4349 24.1279L60.0216 41.8811ZM78.0033 7.21131H67.5022C66.6735 7.21131 66.0022 6.56593 66.0022 5.76913C66.0022 4.97232 66.6735 4.32694 67.5022 4.32694H78.0033C78.832 4.32694 79.5033 4.97232 79.5033 5.76913C79.5033 6.56593 78.832 7.21131 78.0033 7.21131Z" fill="#63666A"/>
</svg>
