<svg width="54" height="63" viewBox="0 0 54 63" fill="none" xmlns="http://www.w3.org/2000/svg">
<path d="M52.9615 1.05H49.5554C49.1919 0.4305 48.5377 0 47.7692 0H38.1635C35.3804 0 32.7635 1.239 30.9773 3.402L28.2773 6.678C28.0177 6.993 27.9658 7.4235 28.1319 7.791C28.3085 8.169 28.6719 8.4 29.0769 8.4H30.1154C32.4104 8.4 34.2692 10.2795 34.2692 12.6V15.75H33.2308C30.3646 15.75 28.0385 18.102 28.0385 21V23.1H22.8462V13.629C22.8358 13.5135 22.815 13.3875 22.7735 13.272C22.7631 13.2405 22.7423 13.2195 22.7319 13.188C22.7112 13.146 22.7008 13.104 22.6696 13.0725L18.6923 7.035V1.05C18.6923 0.4725 18.225 0 17.6538 0H11.4231C10.8519 0 10.3846 0.4725 10.3846 1.05V7.035L6.40731 13.0725C6.40731 13.0725 6.36577 13.146 6.345 13.188C6.33462 13.2195 6.31385 13.2405 6.30346 13.272C6.26192 13.3875 6.24115 13.5135 6.23077 13.629V23.1H3.11538C2.27423 23.1 1.485 23.436 0.924231 24.0135C0.332308 24.6015 0 25.3995 0 26.25C0 27.9825 1.40192 29.4 3.11538 29.4H3.26077L7.63269 57.666C8.11039 60.7635 10.6962 63 13.7908 63H36.0554C39.15 63 41.7358 60.7635 42.2135 57.666L46.5854 29.4H46.7308C47.5719 29.4 48.3612 29.064 48.9219 28.4865C49.5138 27.8985 49.8462 27.1005 49.8462 26.25C49.8462 24.5175 48.4442 23.1 46.7308 23.1H42.5769V12.7995L43.5531 10.332L45.8377 14.1855C46.035 14.5215 46.3777 14.7 46.7308 14.7C46.9177 14.7 47.0942 14.6475 47.2604 14.553C47.7588 14.2485 47.9146 13.608 47.6238 13.1145L44.8304 8.4H47.7692C48.5377 8.4 49.1919 7.9695 49.5554 7.35H52.9615C53.5327 7.35 54 6.8775 54 6.3V2.1C54 1.5225 53.5327 1.05 52.9615 1.05ZM30.1154 21C30.1154 19.2675 31.5173 17.85 33.2308 17.85H40.5V23.1H30.1154V21ZM12.4615 2.1H16.6154V6.3H12.4615V2.1ZM13.5 27.3H3.11538C2.54423 27.3 2.07692 26.8275 2.07692 26.25C2.07692 25.9665 2.18077 25.7145 2.39885 25.5045C2.58577 25.305 2.835 25.2 3.11538 25.2H13.5V27.3ZM8.30769 23.1V14.7H20.7692V23.1H8.30769ZM37.5404 38.283C37.1977 38.976 36.3565 39.2595 35.6712 38.913L31.6212 36.8655C31.2992 36.6975 30.915 36.7185 30.6035 36.9075C30.3023 37.0965 30.1154 37.4325 30.1154 37.8V49.35C30.1154 49.9275 29.6481 50.4 29.0769 50.4C28.5058 50.4 28.0385 49.9275 28.0385 49.35V40.95C28.0385 40.3725 27.5712 39.9 27 39.9C26.4288 39.9 25.9615 40.3725 25.9615 40.95V49.35C25.9615 49.9275 25.4942 50.4 24.9231 50.4C24.3519 50.4 23.8846 49.9275 23.8846 49.35V40.95C23.8846 40.3725 23.4173 39.9 22.8462 39.9C22.275 39.9 21.8077 40.3725 21.8077 40.95V49.35C21.8077 49.9275 21.3404 50.4 20.7692 50.4C20.1981 50.4 19.7308 49.9275 19.7308 49.35V40.95C19.7308 40.3725 19.2635 39.9 18.6923 39.9C18.1212 39.9 17.6538 40.3725 17.6538 40.95V49.35C17.6538 49.9275 17.1865 50.4 16.6154 50.4C16.0442 50.4 15.5769 49.9275 15.5769 49.35V25.2H30.1154V31.5C30.1154 31.857 30.3023 32.2035 30.6035 32.3925L37.0315 36.456C37.6442 36.8445 37.8623 37.632 37.5404 38.283ZM46.7308 25.2C47.3019 25.2 47.7692 25.6725 47.7692 26.25C47.7692 26.5335 47.6654 26.7855 47.4473 26.9955C47.2604 27.195 47.0112 27.3 46.7308 27.3H32.1923V25.2H46.7308ZM47.7692 6.3H43.6154C43.1896 6.3 42.8054 6.5625 42.6496 6.9615L40.8323 11.55H36.2631C35.8269 8.9355 33.7915 6.867 31.2162 6.3945L32.5765 4.746C33.9577 3.066 35.9931 2.1 38.1635 2.1H47.7692V6.3Z" fill="#63666A"/>
</svg>
