<svg width="65" height="66" viewBox="0 0 65 66" fill="none" xmlns="http://www.w3.org/2000/svg">
<path d="M14.9544 57.8737C16.52 57.8737 17.8697 57.3339 19.0034 56.4161C20.1371 57.3339 21.5408 57.8737 23.0524 57.8737C26.6695 57.8737 29.5848 54.9585 29.5848 51.3413C29.5848 47.7242 26.6695 44.809 23.0524 44.809C21.4868 44.809 20.0831 45.3488 19.0034 46.2666C17.9237 45.4028 16.52 44.809 14.9544 44.809C11.3373 44.809 8.422 47.7242 8.422 51.3413C8.422 54.9585 11.3373 57.8737 14.9544 57.8737Z" fill="#63666A"/>
<path d="M60.5731 28.721V32.5001H4.42691V24.618H35.8472C34.9294 23.2684 34.1736 21.8107 33.6877 20.2451H3.50913C1.56561 20.2451 0 21.8107 0 23.7543V62.3547C0 64.2983 1.56561 65.8639 3.50913 65.8639H61.4368C63.3804 65.8639 64.946 64.2983 64.946 62.3547V23.9162C63.8123 25.8057 62.3546 27.4253 60.5731 28.721ZM60.5731 61.4909H4.42691V41.3539H60.5731V61.4909Z" fill="#63666A"/>
<path d="M49.9377 18.7334C50.6935 18.7874 51.4493 18.6254 52.0972 18.2475C53.9867 17.1678 54.6886 14.8463 53.7168 13.0108C53.2309 12.039 52.3671 11.3372 51.3414 11.0133C51.0714 10.9053 50.7475 10.8513 50.4236 10.8513C49.6678 10.7973 48.966 10.9593 48.2641 11.3372C47.2924 11.8771 46.6445 12.7408 46.3206 13.7666C46.0507 14.7923 46.2126 15.9261 46.7525 16.8438C47.4543 17.9776 48.642 18.6794 49.9377 18.7334Z" fill="#63666A"/>
<path d="M50.2076 29.5847C58.3596 29.5847 65 22.9443 65 14.7924C65 6.64036 58.3596 0 50.2076 0C42.0556 0 35.4153 6.64036 35.4153 14.7924C35.4153 22.9443 42.0017 29.5847 50.2076 29.5847ZM41.0839 14.8463V14.7924C41.0839 14.4144 41.0839 14.0365 41.0839 13.6586C41.0839 13.3887 41.1919 13.2807 41.3538 13.1728C41.4078 13.1188 41.4618 13.1188 41.5158 13.1188H41.5698C41.7857 13.0108 42.0556 12.9568 42.2716 12.7948C42.3796 12.7409 42.4336 12.6869 42.5415 12.6329C44.2151 11.2832 44.863 9.77159 44.539 7.99003C44.485 7.66611 44.593 7.50415 44.809 7.39618C45.4028 7.07226 45.9967 6.74834 46.5365 6.42442C46.7525 6.31644 46.9684 6.26246 47.2384 6.4784C48.0482 7.18023 48.912 7.55814 49.8837 7.61212C50.5855 7.66611 51.3953 7.50415 52.2591 7.23422C52.3671 7.18023 52.4211 7.18023 52.5291 7.12624C52.745 7.01827 52.961 6.85631 53.1769 6.69435L53.2309 6.64036C53.2849 6.58638 53.3389 6.58638 53.3928 6.53239C53.5008 6.4784 53.7168 6.42442 53.9867 6.58638C54.3106 6.80232 54.6345 7.01827 54.9585 7.18023L55.0664 7.23422C55.2824 7.34219 55.4983 7.45016 55.6603 7.61212C55.8762 7.77408 55.9842 7.93604 55.9302 8.20598C55.7143 9.23172 55.8762 10.2035 56.4161 11.3372C57.01 12.4169 57.8198 13.1728 58.8995 13.5507C59.1154 13.6586 59.2234 13.8206 59.2234 14.0365C59.2234 14.6844 59.2234 15.3862 59.1694 16.088C59.1694 16.196 59.1694 16.25 59.1154 16.358C59.0615 16.5199 58.8995 16.5739 58.7375 16.6279C58.4676 16.6819 58.1977 16.7899 57.9817 16.8978C57.2259 17.3297 56.5241 18.0855 56.0922 19.0033C55.6063 19.9751 55.4443 20.9468 55.6603 21.7026C55.7143 21.9186 55.7143 22.1885 55.3364 22.4045C55.0124 22.5664 54.6885 22.7284 54.5266 22.8364C54.3106 22.9443 54.0407 23.1063 53.7168 23.3222C53.5548 23.3762 53.4468 23.4302 53.3389 23.4302H53.2849C53.1229 23.4302 52.961 23.3222 52.907 23.2143C52.3671 22.6204 51.4493 22.2425 50.4236 22.1345C49.3978 22.0266 48.3721 22.2425 47.6163 22.6204C47.3463 22.7824 47.1304 22.9443 46.9684 23.1063C46.9144 23.1603 46.8605 23.2143 46.8065 23.2143C46.8065 23.2143 46.7525 23.2143 46.6445 23.2143C46.5365 23.2143 46.4286 23.1603 46.3746 23.1063C45.8347 22.7824 45.2409 22.4585 44.593 22.0266C44.3771 21.9186 44.2691 21.7026 44.3231 21.4867C44.593 20.353 44.3771 19.2732 43.7832 18.2475C43.1354 17.1678 42.3796 16.5199 41.4078 16.196C41.1379 16.088 41.0299 15.9261 41.0299 15.6561C41.0839 15.3862 41.0839 15.1163 41.0839 14.8463Z" fill="#63666A"/>
</svg>
