<svg width="60" height="60" viewBox="0 0 60 60" fill="none" xmlns="http://www.w3.org/2000/svg">
<path d="M35.2529 58.718V60H31.9018C31.1904 60 30.613 59.4256 30.613 58.718V57.4359H33.964C34.6755 57.4359 35.2529 58.0103 35.2529 58.718ZM56.6483 57.4359C55.9368 57.4359 55.3594 58.0103 55.3594 58.718V60H58.7105C59.4219 60 59.9993 59.4256 59.9993 58.718V57.4359H56.6483ZM51.0391 53.3334C50.4514 53.3334 49.9358 53.7334 49.7915 54.3077L49.544 55.3026C49.2244 56.5538 48.0902 57.4359 46.791 57.4359H45.8836C44.5844 57.4359 43.4502 56.5538 43.1305 55.3026L42.8831 54.3077C42.7387 53.7334 42.2232 53.3334 41.6355 53.3334H30.6131V55.8974H33.9641C35.5314 55.8974 36.7997 57.159 36.7997 58.718V60H53.8127V58.718C53.8127 57.159 55.0809 55.8974 56.6482 55.8974H59.9993V53.3334H51.0391ZM52.6579 38.9744H50.4617C50.0389 38.9744 49.6883 38.6257 49.6883 38.2051C49.6883 37.7846 50.0389 37.4359 50.4617 37.4359H52.4208L52.1115 35.4666L52.0187 34.8718H49.4306C49.0079 34.8718 48.6573 34.5231 48.6573 34.1025C48.6573 33.682 49.0078 33.3333 49.4306 33.3333H51.7815L51.3794 30.7692H48.3995C47.9768 30.7692 47.6262 30.4205 47.6262 30C47.6262 29.5794 47.9767 29.2307 48.3995 29.2307H51.1422L50.7504 26.6666H46.76C46.3785 26.6666 46.0176 26.841 45.7702 27.1282C45.5227 27.4256 45.4196 27.8051 45.4918 28.1846L47.8117 40.4923C47.9251 41.0974 48.4613 41.5385 49.08 41.5385H53.0497L52.6579 38.9744ZM38.2845 26.072L37.5937 21.6002C37.4906 20.9745 36.9544 20.513 36.3151 20.513H34.5932C34.7375 22.9848 33.5724 25.3745 31.4586 26.7694L31.108 27.0053C33.1908 28.5848 36.1811 28.8412 38.5214 27.6207L38.2845 26.072ZM41.3985 0L42.3368 1.85639C42.5533 2.29742 42.9967 2.56407 43.4916 2.56407H49.1833C49.6782 2.56407 50.1216 2.2974 50.3381 1.85639L51.2765 0H41.3985ZM25.7152 4.61535H29.0663V0.215368L23.3436 1.64103C22.7662 1.78462 22.3641 2.29744 22.3641 2.88204V16.0923C22.3641 16.6769 22.7662 17.1898 23.3436 17.3333L29.0663 18.759V14.359H25.7152C25.2925 14.359 24.9419 14.0103 24.9419 13.5897C24.9419 13.1692 25.2924 12.8205 25.7152 12.8205H29.0663V10.2564H25.7152C25.2925 10.2564 24.9419 9.9077 24.9419 9.48717C24.9419 9.06664 25.2924 8.71792 25.7152 8.71792H29.0663V6.15385H25.7152C25.2925 6.15385 24.9419 5.80513 24.9419 5.3846C24.9419 4.96407 25.2924 4.61535 25.7152 4.61535ZM16.4356 6.66664H20.8178V4.18462L13.2183 4.94356C12.5481 5.0051 12.0532 5.55894 12.0532 6.21536V12.759C12.0532 13.4154 12.5481 13.9693 13.2183 14.0308L20.8178 14.7897V12.3077H16.4356C16.0129 12.3077 15.6623 11.959 15.6623 11.5385C15.6623 11.1179 16.0129 10.7692 16.4356 10.7692H20.8178V8.20513H16.4356C16.0129 8.20513 15.6623 7.85641 15.6623 7.43588C15.6623 7.01536 16.0129 6.66664 16.4356 6.66664ZM1.28886 8.20513L0 9.48717L1.28886 10.7692H10.5071V8.20513H1.28886ZM51.5656 20.6769C50.6273 21.7538 50.2149 23.1795 50.4314 24.5846L50.5139 25.1282H46.7607C45.9152 25.1282 45.1212 25.4974 44.5747 26.1436C44.0386 26.8 43.8221 27.641 43.9767 28.4718L46.2967 40.7795C46.5441 42.1128 47.7195 43.077 49.0807 43.077H53.2876L53.5556 44.7796C53.7619 46.1744 54.9476 47.1795 56.3602 47.1795H58.7111C59.4226 47.1795 60 47.7539 60 48.4616V51.7949H51.0398C49.7406 51.7949 48.6064 52.677 48.2868 53.9282L48.0393 54.9231C47.895 55.4974 47.3794 55.8974 46.7917 55.8974H45.8843C45.2966 55.8974 44.781 55.4974 44.6367 54.9231L44.3892 53.9282C44.0696 52.677 42.9354 51.7949 41.6362 51.7949H30.6138V50.5128C30.6138 48.6769 32.1192 47.1795 33.9649 47.1795H37.4088C38.8317 47.1795 40.1824 46.5641 41.1207 45.4872C42.0487 44.4001 42.4611 42.9744 42.2446 41.5693L40.0484 27.354L39.1204 21.3643C38.9039 19.9796 37.7284 18.9745 36.3158 18.9745H30.6139V0.000341484H39.677L40.9556 2.54393C41.4402 3.50807 42.4094 4.10291 43.4921 4.10291H49.1838C50.2664 4.10291 51.2357 3.50804 51.7203 2.54393L52.9989 0.000341484H56.6489C58.4946 0.000341484 60 1.49775 60 3.33366V15.6414C60 17.4773 58.4946 18.9747 56.6489 18.9747H55.2879C53.8546 18.9747 52.4936 19.5897 51.5656 20.6769ZM40.9247 15.641C40.9247 15.2205 40.5741 14.8718 40.1513 14.8718H36.0269C35.6042 14.8718 35.2536 15.2205 35.2536 15.641C35.2536 16.0615 35.6042 16.4103 36.0269 16.4103H40.1513C40.5741 16.4103 40.9247 16.0615 40.9247 15.641ZM45.0491 8.4612C45.0491 6.90222 43.7808 5.64067 42.2135 5.64067H36.0269C34.4597 5.64067 33.1914 6.90222 33.1914 8.4612V10.5125C33.1914 12.0715 34.4597 13.333 36.0269 13.333H42.2135C43.7808 13.333 45.0491 12.0715 45.0491 10.5125V8.4612ZM53.5559 13.333C55.6903 13.333 57.4225 11.6099 57.4225 9.48684C57.4225 7.36375 55.6903 5.64067 53.5559 5.64067H48.4004C47.9777 5.64067 47.6271 5.98939 47.6271 6.40992V12.5638C47.6271 12.9843 47.9776 13.333 48.4004 13.333H53.5559ZM49.1737 10.2561V11.7946H53.5559C54.5664 11.7946 55.4119 11.1484 55.7315 10.2561H49.1737ZM53.5559 7.17916H49.1737V8.71766H55.7315C55.4119 7.82533 54.5664 7.17916 53.5559 7.17916ZM42.2135 7.17916H36.0269C35.3154 7.17916 34.738 7.75352 34.738 8.4612V10.5125C34.738 11.2202 35.3154 11.7945 36.0269 11.7945H42.2135C42.9249 11.7945 43.5023 11.2202 43.5023 10.5125V8.4612C43.5023 7.75352 42.9249 7.17916 42.2135 7.17916Z" fill="#63666A"/>
</svg>
