<svg width="71" height="71" viewBox="0 0 71 71" fill="none" xmlns="http://www.w3.org/2000/svg">
<path d="M29.6288 54.2004C29.2028 54.2004 28.794 53.9622 28.597 53.5546C28.3222 52.9854 28.5603 52.3006 29.1295 52.0246C35.4336 48.9728 34.9446 42.1075 33.804 38.9034C33.5922 38.3067 33.9037 37.6529 34.4991 37.441C35.0912 37.2303 35.7508 37.5395 35.9615 38.1361C37.5625 42.6366 37.33 50.5989 30.1258 54.0871C29.9655 54.1638 29.796 54.2004 29.6288 54.2004Z" fill="#63666A"/>
<path d="M69.8548 26.3009H60.2229V19.8182L62.4697 18.2733C62.9907 17.9149 63.1224 17.2015 62.7651 16.6804C62.4067 16.1605 61.6933 16.0265 61.1722 16.385L60.2229 17.0377V14.9455H63.3572C66.2441 14.9455 68.5929 12.5968 68.5929 9.70982C68.5929 7.24315 66.803 5.10742 64.4394 4.59095C64.2722 3.49961 63.7763 2.48844 62.9942 1.67194C61.9624 0.594339 60.571 0 59.0766 0C57.5799 0 56.1885 0.594339 55.1555 1.67308C54.3757 2.48615 53.8821 3.4916 53.7126 4.57835C51.3754 5.07421 49.5569 7.22253 49.5569 9.70868C49.5569 12.5956 51.9056 14.9444 54.7925 14.9444H57.9303V20.101L56.9775 19.4471C56.4553 19.0887 55.743 19.2215 55.3846 19.7426C55.0261 20.2648 55.159 20.9771 55.68 21.3355L57.9303 22.8803V26.3009H48.2995C47.6662 26.3009 47.1543 26.8128 47.1543 27.4461V33.3242C47.1543 33.4696 47.1818 33.6128 47.2356 33.7479L50.3321 37.3746V41.7766L55.3651 51.4269C55.6571 51.9869 55.4395 52.6786 54.8784 52.9717C54.7101 53.0599 54.528 53.1011 54.3505 53.1011C53.9371 53.1011 53.5386 52.8778 53.3336 52.485L49.8958 45.8912L44.1162 49.8031C44.6189 42.3996 42.6607 35.8184 38.3721 30.6525C33.283 24.5213 24.9576 20.6118 16.1044 20.1915C15.6383 20.1571 15.2547 20.4033 15.044 20.787C14.8333 21.1729 14.863 21.6435 15.1161 22.0008C18.373 26.57 20.3736 30.0731 21.6035 33.3563C23.0968 37.354 23.0315 41.1193 21.4317 43.4268C20.0964 45.3495 17.734 46.3241 14.4107 46.3241H1.14516C0.511887 46.3241 0 46.836 0 47.4692V69.7438C0 70.377 0.511887 70.8889 1.14516 70.8889H69.8548C70.4881 70.8889 71 70.377 71 69.7438V58.9586V27.4461C71 26.8128 70.4881 26.3009 69.8548 26.3009ZM2.29032 48.6132H14.4141C19.5445 48.6132 22.0867 46.5016 23.3155 44.73C25.3745 41.7629 25.5348 37.3242 23.7518 32.5524C22.8036 30.0215 21.4351 27.3877 19.462 24.3186C23.6052 26.9479 28.4424 31.5629 28.9886 35.8848C29.0619 36.4642 29.5543 36.8868 30.1235 36.8868C30.1716 36.8868 30.2197 36.8834 30.2678 36.8776C30.8965 36.7986 31.3408 36.226 31.2606 35.5985C30.672 30.9514 26.3983 26.4223 22.2425 23.4403C28.0072 24.905 33.1433 27.9374 36.612 32.1149C40.9372 37.3265 42.6641 44.1631 41.6094 51.893C41.0712 54.1134 40.0795 56.0053 38.6916 57.5558C37.8373 57.2695 37.0059 56.7622 36.431 55.9491C36.0016 55.3434 34.9904 55.3434 34.561 55.9491C33.5658 57.3577 31.7977 57.8604 30.4762 57.8604C29.1547 57.8604 27.3877 57.3588 26.3914 55.9491C25.962 55.3411 24.9508 55.3456 24.5213 55.9491C23.5262 57.3577 21.7581 57.8604 20.4365 57.8604C19.1127 57.8604 17.3435 57.3588 16.3483 55.9491C16.133 55.6445 15.786 55.4647 15.4139 55.4647H15.4127C15.0405 55.4647 14.6924 55.6457 14.4783 55.9503C13.4866 57.3577 11.7184 57.8604 10.3946 57.8604C9.07311 57.8604 7.30498 57.3588 6.30984 55.9491C6.09455 55.6457 5.74756 55.4647 5.37539 55.4647C5.00321 55.4647 4.65508 55.6445 4.44094 55.9491C3.94164 56.6523 3.1824 57.179 2.29032 57.5043V48.6132ZM68.7097 68.5975H2.29032V59.9022C3.46869 59.6102 4.53255 59.0674 5.37539 58.3128C6.67629 59.4671 8.49252 60.1496 10.3935 60.1496C12.2979 60.1496 14.1164 59.4671 15.415 58.3128C16.7159 59.4682 18.5344 60.1496 20.4377 60.1496C22.3398 60.1496 24.1583 59.4659 25.4581 58.3116C26.759 59.4671 28.5775 60.1496 30.4785 60.1496C32.3806 60.1496 34.1991 59.4671 35.4989 58.3116C36.7986 59.4682 38.6171 60.1496 40.5192 60.1496C42.4225 60.1496 44.241 59.4671 45.5431 58.3116C46.8417 59.4682 48.659 60.1496 50.5646 60.1496C52.4656 60.1496 54.2841 59.4659 55.585 58.3116C56.8847 59.4671 58.7021 60.1496 60.6042 60.1496C62.5063 60.1496 64.3249 59.4671 65.6258 58.3139C66.4674 59.0674 67.5313 59.6091 68.712 59.9022V68.5975H68.7097ZM68.7097 31.7714H49.4469V28.5912H68.7097V31.7714Z" fill="#63666A"/>
</svg>
