<svg width="63" height="68" viewBox="0 0 63 68" fill="none" xmlns="http://www.w3.org/2000/svg">
<path d="M4.70965 16.6253L0.519603 14.4691C0.281388 14.3469 0.107347 14.1452 0.0357694 13.9085C-0.0358086 13.6718 0.000938887 13.4194 0.137928 13.2068C0.274917 12.9943 0.500927 12.839 0.766237 12.7751C1.03155 12.7113 1.31442 12.744 1.55264 12.8663L5.74269 15.0224C5.86064 15.083 5.96408 15.1636 6.04709 15.2598C6.13011 15.356 6.19108 15.4658 6.22652 15.583C6.26196 15.7003 6.27118 15.8226 6.25365 15.943C6.23612 16.0633 6.19219 16.1795 6.12436 16.2847C6.05653 16.39 5.96613 16.4823 5.85833 16.5563C5.75052 16.6304 5.62742 16.6848 5.49605 16.7164C5.36468 16.7481 5.22762 16.7563 5.09269 16.7406C4.95776 16.725 4.8276 16.6858 4.70965 16.6253ZM36.9418 9.03453C37.1805 9.1564 37.4636 9.18907 37.7292 9.12539C37.9948 9.06172 38.2214 8.90687 38.3595 8.69465L40.8644 4.82552C40.9325 4.72001 40.9767 4.60356 40.9944 4.48282C41.0121 4.36207 41.003 4.2394 40.9675 4.12181C40.9321 4.00421 40.871 3.894 40.7878 3.79746C40.7047 3.70092 40.601 3.61994 40.4827 3.55915C40.3645 3.49836 40.234 3.45895 40.0986 3.44316C39.9633 3.42738 39.8258 3.43553 39.694 3.46716C39.5623 3.49878 39.4387 3.55325 39.3305 3.62747C39.2223 3.70169 39.1316 3.79419 39.0635 3.89971L36.5624 7.7702C36.4941 7.8754 36.4497 7.9916 36.4318 8.11212C36.414 8.23265 36.4229 8.35514 36.4581 8.47258C36.4934 8.59003 36.5542 8.70011 36.6372 8.79654C36.7202 8.89296 36.8237 8.97384 36.9418 9.03453ZM46.7251 16.6253L50.9152 14.4691C51.1534 14.3469 51.3274 14.1452 51.399 13.9085C51.4706 13.6718 51.4339 13.4194 51.2969 13.2068C51.1599 12.9943 50.9339 12.839 50.6686 12.7751C50.4032 12.7113 50.1204 12.744 49.8821 12.8663L45.6921 15.0224C45.4539 15.1447 45.2799 15.3463 45.2083 15.583C45.1367 15.8198 45.1734 16.0722 45.3104 16.2847C45.4474 16.4973 45.6734 16.6526 45.9387 16.7164C46.2041 16.7803 46.4869 16.7475 46.7251 16.6253ZM13.0753 8.69261C13.2124 8.9058 13.4387 9.06166 13.7046 9.1259C13.9705 9.19015 14.2541 9.15753 14.493 9.03521C14.7319 8.91289 14.9066 8.71089 14.9786 8.47366C15.0506 8.23642 15.0141 7.98338 14.877 7.7702L12.3668 3.89971C12.3007 3.79126 12.211 3.69569 12.1029 3.61861C11.9948 3.54153 11.8706 3.4845 11.7375 3.45086C11.6044 3.41722 11.4651 3.40766 11.3278 3.42273C11.1904 3.4378 11.0579 3.47721 10.9379 3.53863C10.8179 3.60005 10.7128 3.68225 10.6289 3.78039C10.545 3.87854 10.4839 3.99066 10.4493 4.11017C10.4146 4.22968 10.4071 4.35416 10.4271 4.4763C10.4471 4.59845 10.4943 4.71579 10.5658 4.82145L13.0753 8.69261ZM25.7185 6.41478C25.9946 6.41424 26.2591 6.31617 26.4543 6.14202C26.6494 5.96788 26.7594 5.73184 26.76 5.48556V0.955035C26.7637 0.830849 26.7396 0.707249 26.6889 0.591534C26.6382 0.475818 26.5621 0.370334 26.465 0.281309C26.3679 0.192285 26.2518 0.121525 26.1235 0.0732091C25.9952 0.024893 25.8574 0 25.7182 0C25.5789 0 25.4411 0.024893 25.3128 0.0732091C25.1846 0.121525 25.0684 0.192285 24.9713 0.281309C24.8742 0.370334 24.7981 0.475818 24.7474 0.591534C24.6968 0.707249 24.6726 0.830849 24.6764 0.955035V5.48216C24.6759 5.60453 24.7025 5.72578 24.7546 5.83896C24.8068 5.95213 24.8835 6.055 24.9803 6.14166C25.0771 6.22831 25.1922 6.29705 25.3189 6.34392C25.4456 6.39079 25.5814 6.41487 25.7185 6.41478ZM61.9327 46.8272H59.2709V44.2441H61.9327C62.2085 44.2441 62.473 44.1464 62.668 43.9724C62.8631 43.7984 62.9726 43.5624 62.9726 43.3163C62.9726 43.0702 62.8631 42.8342 62.668 42.6602C62.473 42.4862 62.2085 42.3884 61.9327 42.3884H59.2709V41.7488C59.2708 41.6268 59.2438 41.506 59.1913 41.3934C59.1389 41.2807 59.0621 41.1783 58.9653 41.0922C58.8685 41.006 58.7536 40.9377 58.6273 40.8912C58.5009 40.8446 58.3654 40.8208 58.2287 40.8209H53.5183C52.2985 40.8237 51.1171 41.2018 50.1734 41.8914C49.2297 42.5811 48.5814 43.54 48.3379 44.6065H44.3444C43.4475 44.6068 42.5873 44.9249 41.9531 45.4908C41.3188 46.0567 40.9623 46.8242 40.9619 47.6245V62.9984C40.9575 63.8317 40.5845 64.6296 39.9241 65.2188C39.2637 65.8079 38.3693 66.1405 37.4354 66.1443H30.2819C29.4682 66.1408 28.6807 65.8876 28.0517 65.4271C27.4227 64.9666 26.9905 64.3269 26.8278 63.6156H24.719C24.8906 64.8246 25.5498 65.9364 26.5733 66.7433C27.5968 67.5502 28.9146 67.9969 30.2804 68H37.4339C38.9199 67.9968 40.3441 67.4689 41.3952 66.5318C42.4464 65.5946 43.0392 64.3243 43.044 62.9984V47.6245C43.0435 47.4725 43.0766 47.3219 43.1415 47.1813C43.2063 47.0407 43.3017 46.9129 43.422 46.8052C43.5423 46.6976 43.6852 46.6121 43.8426 46.5539C44 46.4956 44.1687 46.4656 44.3391 46.4656H48.3334C48.577 47.5321 49.2253 48.491 50.1689 49.1807C51.1126 49.8704 52.2939 50.2487 53.5138 50.2518H58.2287C58.3655 50.2518 58.501 50.2277 58.6274 50.181C58.7538 50.1342 58.8687 50.0657 58.9654 49.9794C59.0621 49.893 59.1388 49.7905 59.1911 49.6777C59.2434 49.5649 59.2702 49.444 59.2701 49.3219V48.6822H61.932C62.0708 48.6856 62.2091 48.6641 62.3385 48.619C62.4679 48.5739 62.5858 48.5061 62.6854 48.4196C62.785 48.3332 62.8641 48.2298 62.9181 48.1156C62.9722 48.0014 63 47.8787 63 47.7547C63 47.6307 62.9722 47.508 62.9181 47.3938C62.8641 47.2796 62.785 47.1763 62.6854 47.0898C62.5858 47.0033 62.4679 46.9356 62.3385 46.8904C62.2091 46.8453 62.0716 46.8238 61.9327 46.8272ZM33.3932 53.3752V52.48C33.3897 51.7577 33.4624 51.0367 33.6103 50.3265H17.823C17.971 51.0365 18.0442 51.7572 18.0416 52.4793H18.0462V53.3745L33.3932 53.3752ZM27.3466 28.2694C27.2153 28.237 27.0925 28.1817 26.9853 28.1068C26.8781 28.0318 26.7886 27.9387 26.7219 27.8327C26.6553 27.7267 26.6128 27.61 26.597 27.4893C26.5812 27.3686 26.5923 27.2463 26.6297 27.1294L28.9616 19.7154L20.4627 29.2931H23.8033V29.2972C23.8988 29.2971 23.9939 29.3085 24.0859 29.3311C24.3518 29.3982 24.5771 29.5565 24.7123 29.7715C24.8475 29.9864 24.8817 30.2405 24.8074 30.4779L22.4709 37.8871L30.9698 28.3027H27.6292C27.5336 28.3043 27.4384 28.2931 27.3466 28.2694ZM29.6199 58.2796C30.5572 58.2775 31.4604 57.9649 32.1541 57.4023C32.8477 56.8398 33.2825 56.0674 33.3741 55.235H18.0614C18.153 56.0671 18.5874 56.8392 19.2806 57.4017C19.9739 57.9642 20.8764 58.277 21.8134 58.2796H29.6199ZM34.1908 48.4688H17.2425C16.2346 46.0523 14.4039 44.0953 12.5146 42.0791C9.16253 38.4962 5.64365 34.7379 5.64365 28.0226C5.64365 23.2731 7.75819 18.7182 11.5221 15.3598C15.286 12.0014 20.391 10.1146 25.714 10.1146C31.0369 10.1146 36.1419 12.0014 39.9058 15.3598C43.6697 18.7182 45.7843 23.2731 45.7843 28.0226C45.7843 34.7406 42.2669 38.4962 38.9134 42.0791C37.0263 44.0946 35.1957 46.0516 34.1878 48.4681L34.1908 48.4688ZM18.9947 17.2955C19.1158 17.2369 19.2227 17.1574 19.3091 17.0616C19.3955 16.9658 19.4597 16.8557 19.498 16.7376C19.5363 16.6195 19.5479 16.4957 19.5321 16.3736C19.5163 16.2514 19.4735 16.1333 19.4061 16.026C19.3387 15.9188 19.2481 15.8245 19.1395 15.7488C19.031 15.6731 18.9066 15.6174 18.7737 15.5849C18.6408 15.5524 18.502 15.5438 18.3653 15.5597C18.2286 15.5755 18.0968 15.6154 17.9776 15.677C15.5175 16.905 13.469 18.6963 12.0435 20.8662C10.618 23.0361 9.86697 25.5061 9.86798 28.0213C9.87532 28.2635 9.9883 28.4935 10.1829 28.6625C10.3774 28.8315 10.6382 28.926 10.9098 28.926C11.1813 28.926 11.4421 28.8315 11.6367 28.6625C11.8313 28.4935 11.9442 28.2635 11.9516 28.0213C11.9474 25.8356 12.5982 23.6887 13.8366 21.8028C15.0749 19.917 16.8557 18.3608 18.9947 17.2955ZM34.155 27.3775C34.1544 27.1313 34.0445 26.8952 33.8493 26.7211C33.6541 26.5469 33.3896 26.4489 33.1136 26.4483H28.9997L32.3655 15.7674C32.4302 15.5614 32.4129 15.3418 32.3166 15.1458C32.2202 14.9499 32.0509 14.7898 31.8372 14.6927C31.6235 14.5956 31.3788 14.5676 31.1445 14.6133C30.9103 14.659 30.701 14.7757 30.5523 14.9436L17.5655 29.5833C17.378 29.7541 17.2735 29.9839 17.2745 30.223C17.2744 30.345 17.3012 30.4659 17.3535 30.5787C17.4058 30.6915 17.4825 30.7939 17.5793 30.8802C17.676 30.9665 17.7908 31.035 17.9172 31.0816C18.0436 31.1283 18.1791 31.1523 18.3159 31.1522H22.4297L19.0708 41.8365C19.006 42.0421 19.023 42.2614 19.1189 42.4571C19.2149 42.6529 19.3838 42.8129 19.597 42.9101C19.8102 43.0072 20.0545 43.0355 20.2884 42.9901C20.5224 42.9447 20.7315 42.8284 20.8802 42.661L33.8716 28.0213C34.0542 27.8465 34.1555 27.6164 34.155 27.3775ZM29.7212 60.917C29.9888 60.6796 30.2073 60.4019 30.3664 60.0966C30.1187 60.1236 29.8694 60.1374 29.6199 60.138H21.8134C21.5639 60.1374 21.3145 60.1236 21.0668 60.0966C21.3253 60.5905 21.7357 61.0087 22.2502 61.3026C22.7648 61.5965 23.3623 61.7539 23.9732 61.7565H27.4654C27.8848 61.7557 28.2999 61.6811 28.6869 61.5371C29.074 61.393 29.4254 61.1823 29.7212 60.917Z" fill="#63666A"/>
</svg>
