<svg width="18" height="18" viewBox="0 0 18 18" fill="none" xmlns="http://www.w3.org/2000/svg">
<path d="M16.1004 0.25H1.49531C0.697266 0.25 0 0.824219 0 1.61289V16.2504C0 17.0434 0.697266 17.75 1.49531 17.75H16.0961C16.8984 17.75 17.5 17.0387 17.5 16.2504V1.61289C17.5047 0.824219 16.8984 0.25 16.1004 0.25ZM5.42461 14.8371H2.91758V7.04219H5.42461V14.8371ZM4.25781 5.85703H4.23984C3.4375 5.85703 2.91797 5.25977 2.91797 4.51211C2.91797 3.75078 3.45117 3.16758 4.27148 3.16758C5.0918 3.16758 5.59375 3.74648 5.61172 4.51211C5.61133 5.25977 5.0918 5.85703 4.25781 5.85703ZM14.5871 14.8371H12.0801V10.575C12.0801 9.55391 11.7152 8.85625 10.8082 8.85625C10.1152 8.85625 9.70508 9.325 9.52266 9.78164C9.4543 9.9457 9.43594 10.1691 9.43594 10.3973V14.8371H6.92891V7.04219H9.43594V8.12695C9.80078 7.60742 10.3707 6.85977 11.6969 6.85977C13.3426 6.85977 14.5875 7.94453 14.5875 10.2832L14.5871 14.8371Z" fill="white"/>
</svg>
