<svg width="21" height="17" viewBox="0 0 21 17" fill="none" xmlns="http://www.w3.org/2000/svg">
<path d="M18.375 0H2.625C1.92904 0.000744481 1.26179 0.277545 0.769667 0.769667C0.277545 1.26179 0.000744481 1.92904 0 2.625V13.875C0.000744481 14.571 0.277545 15.2382 0.769667 15.7303C1.26179 16.2225 1.92904 16.4993 2.625 16.5H18.375C19.071 16.4993 19.7382 16.2225 20.2303 15.7303C20.7225 15.2382 20.9993 14.571 21 13.875V2.625C20.9993 1.92904 20.7225 1.26179 20.2303 0.769667C19.7382 0.277545 19.071 0.000744481 18.375 0V0ZM17.7103 4.34203L10.9603 9.59203C10.8287 9.69436 10.6667 9.74991 10.5 9.74991C10.3333 9.74991 10.1713 9.69436 10.0397 9.59203L3.28969 4.34203C3.21038 4.28214 3.14377 4.20709 3.09372 4.12123C3.04367 4.03537 3.01118 3.94042 2.99815 3.8419C2.98511 3.74338 2.99179 3.64325 3.01778 3.54733C3.04378 3.45142 3.08858 3.36162 3.14958 3.28316C3.21058 3.20471 3.28656 3.13916 3.37312 3.09032C3.45967 3.04149 3.55506 3.01034 3.65376 2.99869C3.75245 2.98704 3.85248 2.99513 3.94802 3.02247C4.04357 3.04981 4.13272 3.09587 4.21031 3.15797L10.5 8.04984L16.7897 3.15797C16.947 3.0392 17.1447 2.98711 17.3401 3.01296C17.5354 3.03881 17.7128 3.14053 17.8338 3.29612C17.9547 3.45171 18.0096 3.64866 17.9865 3.84439C17.9634 4.04011 17.8642 4.21888 17.7103 4.34203Z" fill="white"/>
</svg>
