<svg width="21" height="21" viewBox="0 0 21 21" fill="none" xmlns="http://www.w3.org/2000/svg">
<path d="M4.52222 8.90556C6.12222 12.05 8.7 14.6278 11.8444 16.2278L14.2889 13.7833C14.6 13.4722 15.0333 13.3833 15.4222 13.5056C16.6667 13.9167 18 14.1389 19.3889 14.1389C19.6836 14.1389 19.9662 14.256 20.1746 14.4643C20.3829 14.6727 20.5 14.9553 20.5 15.25V19.1389C20.5 19.4336 20.3829 19.7162 20.1746 19.9246C19.9662 20.1329 19.6836 20.25 19.3889 20.25C14.3792 20.25 9.57478 18.2599 6.03243 14.7176C2.49007 11.1752 0.5 6.37076 0.5 1.36111C0.5 1.06643 0.617063 0.783811 0.825437 0.575437C1.03381 0.367063 1.31643 0.25 1.61111 0.25H5.5C5.79468 0.25 6.0773 0.367063 6.28567 0.575437C6.49405 0.783811 6.61111 1.06643 6.61111 1.36111C6.61111 2.75 6.83333 4.08333 7.24444 5.32778C7.36667 5.71667 7.27778 6.15 6.96667 6.46111L4.52222 8.90556Z" fill="white"/>
</svg>
