<svg width="81" height="78" viewBox="0 0 81 78" fill="none" xmlns="http://www.w3.org/2000/svg">
<path d="M52.3005 19.1194L52.3267 37.2989L59.5029 33.4222L59.4861 15.9853L52.3005 19.1194ZM25.2962 5.7602L51.6508 17.7775L58.605 14.7495L31.5521 3.39284L25.2962 5.7602ZM49.825 18.5759L23.3434 6.50465L12.7172 10.5303L40.5 22.6425L49.825 18.5759ZM33.5683 2.62792L60.483 13.9343L68.2828 10.5321L40.5 0L33.5683 2.62792ZM69.1565 38.8865L41.2467 53.3475V58.1268L69.1565 42.0727V38.8865ZM41.2467 51.6743L69.1565 37.2077V11.7698L60.9759 15.3357L60.9927 33.8633C60.9927 34.1369 60.8452 34.39 60.6007 34.5165L51.9439 39.1954C51.4623 39.4541 50.8276 39.1266 50.8481 38.4938L50.8164 19.7652L41.2467 23.936V51.6743ZM11.8435 38.8865V42.0727L39.7532 58.1268V53.3475L11.8435 38.8865ZM35.9859 30.9618C36.8689 31.3843 36.2286 32.7187 35.3456 32.2962L26.5451 28.0807C25.6621 27.6583 26.3061 26.3183 27.191 26.7407L35.9859 30.9618ZM35.9859 26.3629C36.8689 26.7854 36.2286 28.1254 35.3456 27.7029L26.5451 23.4819C25.6621 23.0594 26.3061 21.725 27.191 22.1475L35.9859 26.3629ZM67.8759 44.5201C70.9394 46.2566 73.9731 48.8938 73.9731 52.3499C73.9731 56.2062 70.1254 59.6251 63.9125 62.0408C58.3025 64.2258 50.7043 65.6291 42.2847 65.8021L46.2369 69.4686C46.5543 69.7589 46.5543 70.2596 46.2369 70.5555L42.1148 74.3745C52.7467 74.1679 62.32 71.9476 69.3358 68.4561C76.5438 64.8641 81 59.9619 81 54.5963C81 48.7728 75.84 44.2614 70.6482 41.4176V42.4989C70.6426 42.7576 70.51 43.0052 70.2729 43.1429L67.8759 44.5201ZM10.3518 41.4251C5.15071 44.2689 0 48.7747 0 54.5981C0 59.5041 3.73562 64.0304 9.89631 67.5181C16.2736 71.1268 25.2103 73.5966 35.3138 74.2331C35.7115 74.2591 36.012 74.5867 36.012 74.9719L36.0176 78L44.6389 70.012L36.0176 62.0185V64.9144C36.0176 65.3518 35.648 65.6961 35.1701 65.6477C27.2526 65.1526 20.2575 63.5539 15.2561 61.2628C4.94162 56.5523 4.41329 49.4614 13.1279 44.5183L10.7831 43.1727C10.5292 43.0573 10.35 42.7986 10.35 42.4971V41.4251H10.3518ZM39.7532 23.936L11.8435 11.7698V37.2096L39.7532 51.6743V23.936Z" fill="#63666A"/>
</svg>
