<svg width="72" height="68" viewBox="0 0 72 68" fill="none" xmlns="http://www.w3.org/2000/svg">
<path d="M61.5508 26.5285H61.407V25.5019C61.407 11.4373 50.0126 0 36.0009 0C21.9891 0 10.5858 11.4373 10.5858 25.5019V26.5285H10.4419C4.68897 26.5285 0 31.2253 0 37.0098C0 42.7844 4.68873 47.4911 10.4419 47.4911H13.9961V25.5052C13.9961 13.3304 23.8652 3.42314 36.0017 3.42314C48.1308 3.42314 58.0008 13.3295 58.0008 25.5052V45.8157C57.9848 48.3918 56.7128 50.7787 54.5841 52.2063L49.0005 55.9694C47.9937 55.3278 46.8112 54.9524 45.5327 54.9524C41.9531 54.9524 39.0286 57.8783 39.0286 61.481C39.0286 65.0742 41.9531 68 45.5327 68C49.1219 68 52.0368 65.0742 52.0368 61.481C52.0368 60.4127 51.7715 59.4118 51.3209 58.5199L56.4858 55.0454C59.0938 53.2905 60.7973 50.5443 61.2672 47.4902H61.5581C67.3207 47.4902 72 42.7838 72 37.0089C71.9936 31.2245 67.3145 26.5276 61.5515 26.5276L61.5508 26.5285Z" fill="#63666A"/>
</svg>
