<svg width="89" height="59" viewBox="0 0 89 59" fill="none" xmlns="http://www.w3.org/2000/svg">
<path d="M81.2611 39.7815H69.6524V58.9996H81.2611V39.7815Z" fill="#63666A"/>
<path d="M81.2608 24.407H54.1738V28.2506H81.2608V24.407Z" fill="#63666A"/>
<path d="M54.1741 44.2607H65.7819V35.9374H81.2598V32.0931H54.1741V44.2607Z" fill="#63666A"/>
<path d="M65.7825 48.103H54.1738V58.9998H65.7825V48.103Z" fill="#63666A"/>
<path d="M14.1822 52.6001H7.73929V58.9998H14.1822V52.6001Z" fill="#63666A"/>
<path d="M24.5137 52.6001H18.0515V58.9998H24.5137V52.6001Z" fill="#63666A"/>
<path d="M34.8261 52.6001H28.3834V58.9998H34.8261V52.6001Z" fill="#63666A"/>
<path d="M34.8261 42.3375H28.3834V48.7565H34.8261V42.3375Z" fill="#63666A"/>
<path d="M7.7403 48.7559H24.5127V38.493H34.826V32.0931H7.7403V48.7559Z" fill="#63666A"/>
<path d="M34.8263 24.407H7.73929V28.2506H34.8263V24.407Z" fill="#63666A"/>
<path d="M67.7182 0L44.5 19.2184L21.2818 0L0 17.6245V59H3.87015V20.5632H38.6961V59H50.3039V20.5632H85.1298V59H89V17.6245L67.7182 0Z" fill="#63666A"/>
</svg>
