<svg width="68" height="68" viewBox="0 0 68 68" fill="none" xmlns="http://www.w3.org/2000/svg">
<g clip-path="url(#clip0_2_778)">
<path d="M40.0191 32.2203C42.0672 30.9075 43.63 28.9611 44.4693 26.6777C45.3087 24.3944 45.3787 21.8992 44.6686 19.5724C43.9584 17.2457 42.5071 15.2148 40.5358 13.7893C38.5645 12.3637 36.1812 11.6217 33.7491 11.6762C31.3169 11.7307 28.9693 12.5788 27.0638 14.0912C25.1584 15.6037 23.7995 17.6975 23.1944 20.0538C22.5892 22.4101 22.7709 24.8996 23.7118 27.143C24.6526 29.3865 26.3011 31.2609 28.4059 32.4806C28.5069 29.0806 28.3847 26.5518 28.2997 25.3459C28.2535 24.62 28.3925 23.8944 28.7034 23.2369C28.6928 23.1094 28.6875 22.9818 28.6875 22.849C28.6875 21.4401 29.2472 20.0888 30.2435 19.0925C31.2398 18.0962 32.591 17.5365 34 17.5365C35.409 17.5365 36.7602 18.0962 37.7565 19.0925C38.7528 20.0888 39.3125 21.4401 39.3125 22.849V22.9447C39.7407 23.7142 39.9172 24.5985 39.8172 25.4734C39.6141 27.7223 39.6819 29.9875 40.0191 32.2203Z" fill="#63666A"/>
<path d="M65.3438 28.6983C66.0487 28.6968 66.7243 28.4158 67.2223 27.9168C67.7203 27.4178 67.9999 26.7417 68 26.0367V16.4742C68 15.7698 67.7202 15.0941 67.222 14.596C66.7239 14.0978 66.0482 13.818 65.3438 13.818C64.6393 13.818 63.9636 14.0978 63.4655 14.596C62.9674 15.0941 62.6875 15.7698 62.6875 16.4742V20.193H61.625V14.8805C61.625 14.5987 61.5131 14.3284 61.3138 14.1292C61.1145 13.9299 60.8443 13.818 60.5625 13.818C60.2807 13.818 60.0105 13.9299 59.8112 14.1292C59.6119 14.3284 59.5 14.5987 59.5 14.8805V20.193H53.0825C53.1038 19.8424 53.125 19.4864 53.125 19.1305C53.125 14.0582 51.1101 9.19371 47.5234 5.60708C43.9368 2.02044 39.0723 0.00549316 34 0.00549316C28.9277 0.00549316 24.0632 2.02044 20.4766 5.60708C16.89 9.19371 14.875 14.0582 14.875 19.1305C14.875 19.4864 14.8909 19.8424 14.9069 20.193H7.4375C7.22605 20.1955 7.01967 20.2582 6.8425 20.3736L1.41844 23.9914C0.981462 24.283 0.623318 24.6781 0.375856 25.1415C0.128393 25.605 -0.000717992 26.1223 3.00316e-06 26.6477V31.8858C0.00067271 32.731 0.336713 33.5413 0.93434 34.139C1.53197 34.7366 2.34233 35.0726 3.1875 35.0733H6.375V46.8511C5.04827 47.0423 3.79796 47.5888 2.75659 48.4328C1.71522 49.2768 0.921584 50.3868 0.459789 51.6452C-0.00200575 52.9036 -0.114755 54.2634 0.133491 55.5807C0.381737 56.8979 0.981729 58.1235 1.86988 59.1275C2.75803 60.1315 3.90126 60.8764 5.1784 61.2835C6.45553 61.6905 7.81901 61.7445 9.12432 61.4396C10.4296 61.1348 11.6281 60.4824 12.5928 59.5518C13.5576 58.6211 14.2525 57.4468 14.6041 56.1533C14.6854 55.862 14.7475 55.5656 14.79 55.2661H15.7834C16.6576 54.7971 17.5981 54.4639 18.5725 54.278C18.7425 54.2355 18.955 54.1877 19.1409 54.1346C19.1462 54.1027 19.1569 54.0708 19.1622 54.0389C19.2206 53.7733 19.2844 53.4705 19.3853 53.1411H14.79C14.5593 51.5549 13.8223 50.0856 12.6889 48.9522C11.5555 47.8188 10.0862 47.0818 8.5 46.8511V22.318H15.1406C15.7308 25.7668 17.2523 28.9888 19.5406 31.6357C21.8289 34.2826 24.7971 36.2539 28.1244 37.3364C28.1403 37.2036 28.1509 37.0708 28.1616 36.9433C28.2094 36.3323 28.2519 35.732 28.2891 35.1477C24.5445 33.8141 21.3854 31.2109 19.3606 27.7904C17.3357 24.3698 16.5731 20.348 17.2051 16.4237C17.8371 12.4993 19.8239 8.92031 22.8203 6.30846C25.8167 3.69661 29.6334 2.21692 33.6073 2.12645C37.5812 2.03597 41.4613 3.34043 44.5734 5.81321C47.6856 8.28599 49.8332 11.7708 50.6432 15.6624C51.4531 19.5539 50.8743 23.6062 49.0072 27.1154C47.1402 30.6246 44.1028 33.3688 40.4228 34.8714H40.4175C40.4494 35.052 40.4813 35.238 40.5184 35.4239C40.6141 35.9445 40.7097 36.4705 40.8159 37.0017C43.9239 35.8087 46.6679 33.8277 48.7786 31.2532C50.8892 28.6788 52.2937 25.5995 52.8541 22.318H59.5V46.8511C57.9138 47.0818 56.4445 47.8188 55.3111 48.9522C54.1777 50.0856 53.4407 51.5549 53.21 53.1411H49.3956C50.2189 53.6066 50.9586 54.2064 51.5844 54.9155C51.7013 55.0324 51.8128 55.1546 51.9297 55.2661H53.21C53.3629 56.3449 53.755 57.3758 54.3575 58.2836C55.0387 59.3215 55.9691 60.1721 57.0637 60.7578C58.1583 61.3436 59.3822 61.6457 60.6237 61.6366C61.8651 61.6276 63.0845 61.3076 64.1704 60.706C65.2563 60.1044 66.1742 59.2402 66.8402 58.1926C67.5062 57.1449 67.8991 55.947 67.983 54.7084C68.0669 53.4698 67.8391 52.2299 67.3204 51.1019C66.8018 49.974 66.0088 48.994 65.0139 48.2515C64.019 47.5089 62.8539 47.0275 61.625 46.8511V22.318H62.6875V26.0367C62.6876 26.7417 62.9673 27.4178 63.4652 27.9168C63.9632 28.4158 64.6388 28.6968 65.3438 28.6983ZM9.5625 54.1877C9.5625 54.608 9.43787 55.0188 9.20438 55.3683C8.97088 55.7177 8.639 55.9901 8.25071 56.1509C7.86241 56.3118 7.43515 56.3538 7.02294 56.2718C6.61073 56.1899 6.23209 55.9875 5.9349 55.6903C5.63771 55.3931 5.43533 55.0145 5.35333 54.6022C5.27134 54.19 5.31342 53.7628 5.47426 53.3745C5.6351 52.9862 5.90746 52.6543 6.25692 52.4208C6.60637 52.1873 7.01722 52.0627 7.4375 52.0627C7.71658 52.0626 7.99294 52.1175 8.2508 52.2243C8.50865 52.331 8.74294 52.4876 8.94027 52.6849C9.13761 52.8822 9.29414 53.1165 9.4009 53.3744C9.50767 53.6322 9.56258 53.9086 9.5625 54.1877ZM62.6875 54.1877C62.6875 54.608 62.5629 55.0188 62.3294 55.3683C62.0959 55.7177 61.764 55.9901 61.3757 56.1509C60.9874 56.3118 60.5601 56.3538 60.1479 56.2718C59.7357 56.1899 59.3571 55.9875 59.0599 55.6903C58.7627 55.3931 58.5603 55.0145 58.4783 54.6022C58.3963 54.19 58.4384 53.7628 58.5993 53.3745C58.7601 52.9862 59.0325 52.6543 59.3819 52.4208C59.7314 52.1873 60.1422 52.0627 60.5625 52.0627C60.8416 52.0626 61.1179 52.1175 61.3758 52.2243C61.6336 52.331 61.8679 52.4876 62.0653 52.6849C62.2626 52.8822 62.4191 53.1165 62.5259 53.3744C62.6327 53.6322 62.6876 53.9086 62.6875 54.1877Z" fill="#63666A"/>
<path d="M51.318 57.5363C50.8597 57.1976 50.4368 56.8133 50.056 56.3893C49.3292 55.6352 48.579 54.8567 47.5401 54.7799C47.1588 54.1069 46.8619 53.3893 46.6564 52.6435C46.5019 52.1223 46.3112 51.6124 46.0857 51.1178C45.3856 49.731 43.9002 49.7961 43.1895 49.8291C43.0668 49.835 42.9034 49.8425 42.8261 49.8371C42.3106 49.6148 41.8081 49.3638 41.3208 49.0851C40.9851 47.5502 40.6347 46.0216 40.2938 44.5365C38.649 37.366 37.0952 30.593 37.7037 25.2364C37.7385 24.9354 37.7084 24.6303 37.6155 24.3418C37.5225 24.0534 37.3689 23.7881 37.1648 23.564C36.9608 23.3399 36.7111 23.1621 36.4326 23.0425C36.1541 22.923 35.8532 22.8645 35.5502 22.871L32.4968 22.9371C32.2098 22.9429 31.927 23.0069 31.6654 23.1252C31.4038 23.2435 31.169 23.4136 30.975 23.6252C30.7811 23.8369 30.6321 24.0856 30.5371 24.3565C30.442 24.6274 30.4029 24.9147 30.4221 25.2012C30.8796 33.5184 30.1744 41.8587 28.3269 49.981H28.0068C26.701 49.981 23.1994 51.3084 22.2214 52.3164C21.6909 52.9355 21.3489 53.6936 21.2357 54.5011C21.1915 54.9403 21.0276 55.359 20.7618 55.7114C20.2475 56.0456 19.6654 56.2616 19.0576 56.3439C17.9683 56.5022 16.9443 56.9594 16.0994 57.6647C15.79 57.9501 15.5692 58.3185 15.4636 58.7259C15.3895 59.1651 15.4168 59.6154 15.5435 60.0424C15.6701 60.4693 15.8927 60.8617 16.1943 61.1894C17.0112 62.2304 18.56 63.3414 19.8212 63.3505C21.0928 63.3596 24.7369 65.1463 25.8409 66.0568C26.7202 66.7823 28.1516 66.7229 29.5347 66.6662C29.8709 66.6521 30.3292 66.6335 30.6384 66.6446C31.1666 67.6036 32.9938 67.6641 35.546 67.7486C36.3607 67.7486 37.1744 67.8059 37.981 67.9198C38.1939 67.9666 38.4119 67.9867 38.6298 67.9795C41.4756 67.9795 50.5886 66.0498 51.6049 64.5406C52.5141 63.1899 53.3867 58.9327 51.318 57.5363Z" fill="#63666A"/>
</g>
<defs>
<clipPath id="clip0_2_778">
<rect width="68" height="68" fill="white"/>
</clipPath>
</defs>
</svg>
