<svg width="76" height="66" viewBox="0 0 76 66" fill="none" xmlns="http://www.w3.org/2000/svg">
<path d="M74.7469 28.2799H71.4447V19.508C71.4447 18.8137 70.8859 18.2549 70.1916 18.2549H65.2638V11.1426C65.2638 10.4483 64.705 9.88948 64.0107 9.88948H57.3556C56.6613 9.88948 56.1025 10.4483 56.1025 11.1426V18.2549H50.5312L45.9759 2.35383C45.5695 0.965241 44.2995 0 42.8601 0H27.6702C26.2308 0 24.9438 0.965241 24.5544 2.35383L19.9822 18.2718H14.4109V11.1595C14.4109 10.4652 13.8521 9.90642 13.1578 9.90642H6.50267C5.80838 9.90642 5.24955 10.4652 5.24955 11.1595V47.2121C2.15062 48.8717 0 52.0891 0 55.8485C0 61.2674 4.40285 65.6872 9.82175 65.6872C13.5811 65.6872 16.8155 63.5365 18.475 60.4376H52.0214C53.6809 63.5535 56.9153 65.6872 60.6747 65.6872C66.0936 65.6872 70.4964 61.2843 70.4964 55.8485C70.4964 52.0891 68.3458 48.8547 65.2469 47.2121V20.795H68.9216V29.5668C68.9216 30.2611 69.4804 30.82 70.1747 30.82H74.7469C75.4412 30.82 76 30.2611 76 29.5668C76 28.8387 75.4412 28.2799 74.7469 28.2799ZM16.7308 58.2701C16.7139 58.3039 16.7139 58.3378 16.697 58.3547C16.6631 58.4563 16.6292 58.541 16.5784 58.6426C16.5784 58.6595 16.5615 58.6765 16.5615 58.6934C16.426 59.0152 16.2567 59.3369 16.0704 59.6417C15.6979 60.2344 15.2576 60.7932 14.7326 61.2504C14.5971 61.369 14.4617 61.4875 14.3262 61.5891C14.2585 61.6399 14.1907 61.6907 14.1061 61.7585C13.6827 62.0633 13.2255 62.3342 12.7344 62.5374C12.5651 62.6052 12.3957 62.6729 12.2264 62.7406C11.9724 62.8253 11.7184 62.91 11.4474 62.9608C10.9225 63.0793 10.3636 63.1471 9.80481 63.1471C5.77451 63.1471 2.4893 59.8618 2.4893 55.8315C2.4893 54.8832 2.67558 53.9857 2.99733 53.156C3.082 52.9358 3.1836 52.7157 3.30214 52.5125C3.35294 52.4109 3.40374 52.3093 3.47148 52.2077C3.52228 52.1061 3.59002 52.0045 3.65775 51.9029C4.23351 51.0053 4.99554 50.2433 5.87611 49.6845C5.97772 49.6168 6.07932 49.566 6.18093 49.4982C6.28253 49.4474 6.38414 49.3797 6.48574 49.3289C6.68895 49.2273 6.90909 49.1257 7.12923 49.0241C7.959 48.7023 8.85651 48.516 9.80481 48.516C11.7861 48.516 13.598 49.3119 14.902 50.5989C15.0205 50.7175 15.156 50.8529 15.2745 50.9715C15.3253 51.0392 15.393 51.1069 15.4439 51.1747C15.6132 51.3779 15.7656 51.5811 15.918 51.8012C16.1551 52.1738 16.3752 52.5633 16.5446 52.9697C16.5446 52.9697 16.5446 52.9866 16.5615 53.0036C16.5784 53.0544 16.6123 53.1052 16.6292 53.1729C16.7139 53.393 16.7986 53.6132 16.8663 53.8503C17.0357 54.4768 17.1373 55.1542 17.1373 55.8485C17.1542 56.6952 17.0018 57.508 16.7308 58.2701ZM18.475 51.2424C17.5606 49.5152 16.1381 48.1096 14.4109 47.1952V20.7781H19.9822L24.5374 36.6791C24.9269 38.0677 26.2139 39.033 27.6533 39.033H42.8431C44.2825 39.033 45.5695 38.0677 45.959 36.6791L50.5143 20.7781H56.0856V47.1952C55.2219 47.6524 54.443 48.2282 53.7487 48.9225C53.664 49.0071 53.5793 49.0918 53.4947 49.1765C52.9189 49.7861 52.4278 50.4973 52.0214 51.2424H18.475ZM65.8565 50.6667C66.2291 51.0392 66.5677 51.4456 66.8556 51.9029C66.9233 52.0045 66.9742 52.1061 67.0419 52.2077C67.1096 52.3093 67.1604 52.4109 67.2112 52.5125C67.3128 52.7157 67.4144 52.9358 67.4991 53.156C67.5499 53.2745 67.5838 53.3761 67.6176 53.4947C67.8717 54.2397 68.0071 55.0187 68.0071 55.8315C68.0071 56.7121 67.8547 57.5588 67.5668 58.3547C67.533 58.4733 67.4822 58.5749 67.4314 58.6934C67.3467 58.9135 67.2282 59.1168 67.1266 59.3369C67.0758 59.4385 67.008 59.5401 66.9572 59.6417C66.8725 59.7941 66.7709 59.9465 66.6693 60.082C66.6016 60.1836 66.5339 60.2683 66.4661 60.3699C66.3984 60.4545 66.3137 60.5562 66.246 60.6408C66.1274 60.7763 66.0089 60.8948 65.8904 61.0303C64.5695 62.3512 62.7406 63.1809 60.7255 63.1809C58.6426 63.1809 56.7799 62.3173 55.4421 60.9287C54.8324 60.2852 54.3414 59.557 54.0027 58.7273C54.0027 58.7103 53.9857 58.6934 53.9857 58.6765C53.6301 57.8128 53.4269 56.8645 53.4269 55.8654C53.4269 55.1034 53.5455 54.3583 53.7656 53.664C53.8164 53.5285 53.8672 53.3761 53.918 53.2406C53.9349 53.1729 53.9688 53.1052 54.0027 53.0374C54.0027 53.0374 54.0027 53.0205 54.0196 53.0036C54.0535 52.9189 54.0873 52.8342 54.1212 52.7665C54.2736 52.4447 54.443 52.1399 54.6462 51.852C54.7986 51.6319 54.951 51.4287 55.1203 51.2255C55.1711 51.1578 55.2389 51.09 55.2897 51.0223C55.4082 50.8868 55.5267 50.7683 55.6453 50.6497C56.9661 49.3627 58.7611 48.5668 60.7424 48.5668C61.7585 48.5668 62.7068 48.77 63.5873 49.1426C63.8583 49.2611 64.1292 49.3966 64.3832 49.5321C64.8913 49.803 65.3993 50.2094 65.8565 50.6667Z" fill="#63666A"/>
<path d="M60.6747 51.7505C59.049 51.7505 57.6604 52.6988 57 54.0704C56.9492 54.189 56.8984 54.3075 56.8476 54.443C56.8137 54.5277 56.7968 54.6123 56.7629 54.6801C56.6613 55.0526 56.5936 55.4421 56.5936 55.8316C56.5936 56.2549 56.6613 56.6614 56.7798 57.0508C56.7968 57.1186 56.8137 57.1863 56.8476 57.2371C56.9153 57.4234 57 57.6097 57.1016 57.779C57.1863 57.9483 57.3048 58.1177 57.4233 58.2701C57.5419 58.4225 57.6773 58.5749 57.8128 58.7104C58.0838 58.9983 58.4055 59.2184 58.7611 59.4216C58.8797 59.4893 58.9982 59.5401 59.1167 59.591C59.6078 59.7942 60.1497 59.9127 60.7085 59.9127C61.8431 59.9127 62.8592 59.4555 63.6043 58.7104C64.3494 57.9653 64.8066 56.9492 64.8066 55.8147C64.8066 55.3913 64.7388 54.9849 64.6203 54.5954C64.5526 54.4091 64.4848 54.2229 64.4002 54.0366C64.2647 53.7318 64.0784 53.4608 63.8752 53.2068C63.0793 52.3262 61.9447 51.7505 60.6747 51.7505Z" fill="#63666A"/>
<path d="M9.83867 51.7505C7.58645 51.7505 5.75757 53.5794 5.75757 55.8316C5.75757 58.0838 7.58645 59.9127 9.83867 59.9127C12.0909 59.9127 13.9198 58.0838 13.9198 55.8316C13.9198 53.5794 12.0909 51.7505 9.83867 51.7505Z" fill="#63666A"/>
</svg>
