<svg width="96" height="50" viewBox="0 0 96 50" fill="none" xmlns="http://www.w3.org/2000/svg">
<path d="M92 22.4L81.6 21L77 10.4C75.8 7.5 73 5.8 69.7 5.8H57.9L58.4 2.3C58.6 1 57.7 0 56.4 0H21.1C19.8 0 18.7 1 18.5 2.3L17.8 7.3H26.8C27.8 7.3 28.7 8.1 28.7 9.2C28.7 10.3 27.9 11.1 26.8 11.1H10.2C9.1 11.1 8.3 11.9 8.3 13C8.3 14.1 9.1 14.9 10.2 14.9H30.6C31.6 14.9 32.5 15.7 32.5 16.8C32.5 17.9 31.6 18.7 30.6 18.7H1.9C0.9 18.7 0 19.5 0 20.6C0 21.6 0.9 22.5 1.9 22.5H24.2C25.3 22.5 26.1 23.3 26.1 24.4C26.1 25.4 25.3 26.3 24.2 26.3H5.8C4.8 26.3 3.9 27.1 3.9 28.2C3.9 29.2 4.7 30.1 5.8 30.1H14.6L13.3 39.2C13.1 40.3 13.9 41.2 15 41.2H18.9C18.6 45.9 22 49.6 26.8 49.6C31.6 49.6 36 45.9 37.1 41.2H68.6C68.3 45.9 71.7 49.6 76.5 49.6C81.3 49.6 85.7 45.9 86.8 41.2H88.9C91.1 41.2 93.2 39.4 93.5 37.1L95 26.5C95.2 24.4 94 22.7 92 22.4ZM32.9 40.4C32.5 43.1 30.1 45.2 27.4 45.2C24.7 45.2 22.9 43 23.3 40.4C23.7 37.7 26.1 35.6 28.8 35.6C31.5 35.6 33.3 37.7 32.9 40.4ZM61.1 20.7C60.9 20.7 60.7 20.5 60.7 20.3L61.9 11.9C61.9 11.7 62.1 11.5 62.4 11.5H69C70.2 11.5 71.3 12.2 71.8 13.3L74.8 20.2C74.9 20.5 74.7 20.8 74.4 20.8H61.1V20.7ZM82.6 40.4C82.2 43.1 79.8 45.2 77.1 45.2C74.4 45.2 72.6 43 73 40.4C73.4 37.7 75.8 35.6 78.5 35.6C81.1 35.6 83 37.7 82.6 40.4Z" fill="#63666A"/>
</svg>
