<svg width="55" height="64" viewBox="0 0 55 64" fill="none" xmlns="http://www.w3.org/2000/svg">
<path d="M32.2472 56.6269L44.9596 53.1841V58.0971L38.6034 64L32.2472 58.0971V56.6341V56.6269ZM42.1273 0V2.2345C42.1273 4.00318 40.3581 4.93483 38.6107 4.93483C36.8632 4.93483 35.094 4.01046 35.094 2.2345V0C30.4269 0.989878 26.8083 3.90856 25.7235 7.53326H51.5052C50.413 3.90856 46.8017 0.989878 42.1346 0H42.1273ZM32.2544 55.2075L44.9669 51.7648V44.2534L32.2544 47.6961V55.2075ZM32.2544 28.4081L44.9669 24.9653V17.4539L32.2544 20.8966V28.4153V28.4081ZM32.2544 19.47L44.9669 16.0273V14.0694H32.2544V19.4773V19.47ZM32.2544 46.2695L44.9669 42.8268V35.3154L32.2544 38.7581V46.2695ZM32.2544 37.3388L44.9669 33.8961V26.3846L32.2544 29.8274V37.3388ZM54.8544 8.90163H52.3716H22.3597C22.2796 8.90163 22.2068 8.97441 22.2068 9.05447V12.5409C22.2068 12.6209 22.2796 12.6937 22.3597 12.6937H54.8471C54.9272 12.6937 55 12.6209 55 12.5409V9.05447C55 8.97441 54.9272 8.90163 54.8471 8.90163H54.8544ZM5.7228 43.1398C5.7228 46.4733 8.43857 49.1882 11.7732 49.1882C15.1079 49.1882 17.8237 46.4733 17.8237 43.1398C17.8237 39.8062 15.1079 37.0913 11.7732 37.0913C8.43857 37.0913 5.7228 39.8062 5.7228 43.1398ZM11.7732 29.5508L23.5465 36.3416V49.9306L11.7732 56.7215L0 49.9306V36.3416L11.7732 29.5508ZM11.7732 35.7157C7.68136 35.7157 4.3467 39.042 4.3467 43.1398C4.3467 47.2376 7.67408 50.5639 11.7732 50.5639C15.8724 50.5639 19.1998 47.2376 19.1998 43.1398C19.1998 39.042 15.8724 35.7157 11.7732 35.7157Z" fill="#63666A"/>
</svg>
