<svg width="46" height="62" viewBox="0 0 46 62" fill="none" xmlns="http://www.w3.org/2000/svg">
<path d="M6.34088 0V9.76055H39.4565V0H6.34088ZM9.7421 3.39327H36.055V6.36735H9.7421V3.39327Z" fill="#63666A"/>
<path d="M37.3076 7.79724L33.9594 8.33316L42.4492 61.3944L45.7974 60.8585L37.3076 7.79724Z" fill="#63666A"/>
<path d="M22.4504 7.79724L19.1022 8.33316L27.592 61.3944L30.9402 60.8585L22.4504 7.79724Z" fill="#63666A"/>
<path d="M22.8987 19.1022V22.4981H37.7558V19.1022H22.8987Z" fill="#63666A"/>
<path d="M25.0211 31.8369V35.2328H39.8783V31.8369H25.0211Z" fill="#63666A"/>
<path d="M27.1436 44.5715V47.9675H42.0008V44.5715H27.1436Z" fill="#63666A"/>
<path d="M8.48979 7.79724L0 60.8585L3.34817 61.3944L11.838 8.33316L8.48979 7.79724Z" fill="#63666A"/>
<path d="M19.102 34.3282L14.8571 60.8585L18.2053 61.3944L22.4502 34.8642L19.102 34.3282Z" fill="#63666A"/>
<path d="M8.04156 19.1022V22.4981H18.5716V19.1022H8.04156Z" fill="#63666A"/>
<path d="M5.91913 31.8369V35.2328H20.7763V31.8369H5.91913Z" fill="#63666A"/>
<path d="M3.79663 44.5715V47.9675H18.6538V44.5715H3.79663Z" fill="#63666A"/>
</svg>
