<svg width="67" height="63" viewBox="0 0 67 63" fill="none" xmlns="http://www.w3.org/2000/svg">
<path fill-rule="evenodd" clip-rule="evenodd" d="M60.6275 58.8151L59.9459 55.3652C59.8055 54.6462 59.554 53.9535 59.2004 53.3122C58.8142 52.6292 58.3344 52.0038 57.775 51.4543L56.2124 49.8885L54.4717 49.819L54.5828 52.649V52.6719V52.6924C54.5822 52.7542 54.5742 52.8157 54.5591 52.8756L54.5544 52.8938L54.5497 52.9095V52.9135V52.919V52.9309L54.545 52.9459V52.9577V52.9648C54.5379 52.983 54.5308 53.0004 54.5229 53.0169C54.4875 53.0931 54.4407 53.1634 54.3842 53.2254L54.3755 53.2349L54.37 53.2412L54.3629 53.2475L54.3558 53.2546L54.3503 53.2601L54.3409 53.2696C54.2792 53.3266 54.209 53.3735 54.1328 53.4086L54.0808 53.4307H54.0737L54.0619 53.4354L54.0462 53.441H54.0343H54.028L54.0123 53.4457L53.9942 53.4504C53.934 53.4649 53.8724 53.4726 53.8106 53.4733H53.7656L50.9147 53.3817L51.0258 56.2109V56.2346V56.2543C51.025 56.3163 51.0174 56.378 51.0029 56.4383L50.9982 56.4565L50.9935 56.4723V56.4786V56.4904L50.9887 56.5062L50.9848 56.5181V56.5252C50.9777 56.5426 50.9706 56.5599 50.9627 56.5773C50.9275 56.6533 50.8807 56.7233 50.8241 56.785L50.8146 56.7944L50.8091 56.8008L50.802 56.8071L50.7957 56.8142L50.7894 56.8197L50.7799 56.8284C50.718 56.885 50.6479 56.9319 50.5719 56.9674C50.5553 56.9753 50.538 56.9824 50.5199 56.9895H50.5128L50.501 56.9934L50.486 56.9982H50.4742H50.4679L50.4521 57.0029L50.434 57.0076C50.3742 57.0227 50.3128 57.0307 50.2512 57.0313H50.2063L48.5775 56.9674L50.4238 58.8166C50.9632 59.3842 51.5794 59.8733 52.2543 60.2695C52.8944 60.6236 53.5856 60.8756 54.3031 61.0165L57.7466 61.7003L60.6251 58.8151H60.6275ZM35.0177 43.4176L0 8.33515L7.37248 0.947535L54.5261 48.1979L53.6593 48.164H53.6175C53.5558 48.1645 53.4945 48.1725 53.4347 48.1877L53.4173 48.1924L53.4016 48.1971H53.3953L53.3835 48.2011L53.3685 48.2058H53.3567H53.3496L53.2976 48.2279C53.2216 48.2634 53.1514 48.3103 53.0895 48.3669L53.0801 48.3756L53.0746 48.3811L53.0675 48.3882L53.0612 48.3945L53.0549 48.4009L53.0462 48.4103C52.989 48.4717 52.9419 48.5418 52.9067 48.618C52.8988 48.6346 52.891 48.6527 52.8847 48.6701V48.6772L52.8799 48.6891L52.8744 48.7041V48.7159V48.7222L52.8697 48.738L52.865 48.7562C52.8503 48.8162 52.8424 48.8776 52.8413 48.9394V48.9607V48.9844L52.9524 51.8136L50.129 51.7014H50.0841C50.0225 51.7021 49.9612 51.7098 49.9013 51.7243L49.8832 51.7283L49.8674 51.7322H49.8611L49.8501 51.7362L49.8351 51.7417L49.8225 51.7464H49.8162L49.7634 51.7686C49.6873 51.8038 49.6171 51.8506 49.5554 51.9075L49.5459 51.917L49.5396 51.9225L49.5325 51.9296L49.5262 51.936L49.5207 51.9423L49.5113 51.9517C49.4545 52.0138 49.4075 52.084 49.3718 52.1602C49.3639 52.1776 49.356 52.1949 49.3497 52.2131V52.2202L49.345 52.2321L49.3395 52.2471L49.3355 52.2581V52.2644L49.3316 52.2802L49.3269 52.2984C49.3124 52.3584 49.3047 52.4198 49.304 52.4816V52.5258L49.4159 55.355L46.9101 55.2563L35.0161 43.4231L35.0177 43.4176ZM43.5556 33.7109L40.4667 30.6156C40.3856 30.5413 40.3204 30.4513 40.2751 30.3511C40.2297 30.2508 40.2052 30.1424 40.2028 30.0324C40.2005 29.9223 40.2204 29.8129 40.2614 29.7108C40.3025 29.6087 40.3638 29.516 40.4416 29.4384C40.5194 29.3607 40.6121 29.2996 40.7141 29.2588C40.8162 29.218 40.9254 29.1984 41.0352 29.2011C41.145 29.2039 41.2531 29.2289 41.353 29.2747C41.4529 29.3205 41.5425 29.3861 41.6163 29.4675L44.7045 32.5628L47.9558 29.3049L44.8668 26.2096C44.7146 26.057 44.629 25.8501 44.629 25.6344C44.629 25.4186 44.7146 25.2117 44.8668 25.0591C45.0191 24.9066 45.2256 24.8209 45.4409 24.8209C45.6562 24.8209 45.8627 24.9066 46.0149 25.0591L49.1039 28.1544L52.3551 24.8965L49.2662 21.8012C49.1908 21.7257 49.131 21.636 49.0902 21.5373C49.0494 21.4386 49.0284 21.3328 49.0284 21.226C49.0284 21.1191 49.0494 21.0133 49.0902 20.9146C49.131 20.8159 49.1908 20.7263 49.2662 20.6507C49.3416 20.5752 49.4311 20.5153 49.5296 20.4744C49.6281 20.4335 49.7336 20.4125 49.8402 20.4125C49.9469 20.4125 50.0524 20.4335 50.1509 20.4744C50.2494 20.5153 50.3389 20.5752 50.4143 20.6507L53.5032 23.7452L56.7545 20.4873L53.6656 17.3928C53.5201 17.2388 53.4403 17.0341 53.4431 16.8221C53.4459 16.6101 53.5312 16.4075 53.6808 16.2576C53.8304 16.1076 54.0324 16.022 54.244 16.019C54.4555 16.016 54.6599 16.0959 54.8137 16.2415L57.9026 19.3368L61.1539 16.0789L58.0649 12.9836C57.9127 12.831 57.8272 12.6241 57.8272 12.4084C57.8272 12.1926 57.9127 11.9857 58.0649 11.8331C58.2172 11.6806 58.4237 11.5949 58.639 11.5949C58.8543 11.5949 59.0608 11.6806 59.213 11.8331L62.302 14.9284L67 10.2207L56.8002 0L32.7616 24.0879L42.9614 34.3086L43.5556 33.7133V33.7109ZM17.1578 60.1629L14.0688 57.0684C13.9901 56.9936 13.9271 56.9036 13.8836 56.804C13.84 56.7043 13.8169 56.5969 13.8155 56.4881C13.8141 56.3793 13.8345 56.2713 13.8755 56.1706C13.9165 56.0698 13.9772 55.9783 14.054 55.9015C14.1309 55.8246 14.2223 55.764 14.3229 55.7232C14.4236 55.6823 14.5313 55.6621 14.6399 55.6637C14.7485 55.6653 14.8556 55.6887 14.955 55.7325C15.0544 55.7763 15.144 55.8397 15.2185 55.9188L18.3075 59.014L21.5587 55.7561L18.4698 52.6608C18.3244 52.5068 18.2447 52.302 18.2477 52.09C18.2507 51.878 18.3361 51.6755 18.4858 51.5256C18.6355 51.3757 18.8376 51.2903 19.0492 51.2874C19.2607 51.2846 19.4651 51.3646 19.6187 51.5104L22.7068 54.6056L25.9581 51.3477L22.87 48.2524C22.7946 48.1769 22.7348 48.0872 22.694 47.9885C22.6532 47.8898 22.6322 47.784 22.6322 47.6772C22.6322 47.5704 22.6532 47.4646 22.694 47.3659C22.7348 47.2672 22.7946 47.1775 22.87 47.1019C22.9453 47.0264 23.0348 46.9665 23.1333 46.9256C23.2318 46.8847 23.3374 46.8637 23.444 46.8637C23.5506 46.8637 23.6562 46.8847 23.7547 46.9256C23.8532 46.9665 23.9427 47.0264 24.0181 47.1019L27.107 50.1972L30.3583 46.9393L27.2693 43.844C27.1939 43.7685 27.1341 43.6788 27.0933 43.5801C27.0525 43.4814 27.0315 43.3756 27.0315 43.2688C27.0315 43.1619 27.0525 43.0562 27.0933 42.9575C27.1341 42.8588 27.1939 42.7691 27.2693 42.6935C27.3447 42.618 27.4342 42.5581 27.5327 42.5172C27.6312 42.4763 27.7368 42.4553 27.8434 42.4553C27.95 42.4553 28.0556 42.4763 28.1541 42.5172C28.2526 42.5581 28.3421 42.618 28.4174 42.6935L31.5064 45.7888L33.2935 43.998L23.0922 33.7765L4.12909 52.7793L14.3289 63L17.1578 60.1629ZM61.3327 62.3802L61.3375 62.4102L61.3067 62.4054L59.6646 62.0793L61.0042 60.737L61.3327 62.3802Z" fill="#63666A"/>
</svg>
