<svg width="70" height="67" viewBox="0 0 70 67" fill="none" xmlns="http://www.w3.org/2000/svg">
<path d="M69.4687 34.6453C69.0893 33.5828 68.558 32.6721 67.7991 31.8373C67.0402 31.0025 66.2053 30.3194 65.2187 29.7882C64.2321 29.2569 63.0937 28.8775 61.9553 28.7257C61.5759 28.6498 61.2723 28.6498 60.8928 28.6498C60.8169 28.6498 60.741 28.6498 60.6651 28.6498C60.8928 28.4221 61.1205 28.1944 61.2723 27.8908C61.5759 27.5114 61.8794 27.056 62.0312 26.6007C62.2589 26.1453 62.4107 25.614 62.5625 25.1587C62.7142 24.6274 62.7901 24.0962 62.7901 23.5649C62.866 22.4265 62.6384 21.2881 62.2589 20.2256C61.8794 19.1631 61.3482 18.2524 60.5892 17.3417C59.8303 16.5069 58.9955 15.8238 58.0089 15.2926C57.0223 14.7613 55.8839 14.4577 54.7455 14.3819C54.5178 14.3819 54.2901 14.3819 54.0624 14.3819C53.9106 14.3819 53.8347 14.3819 53.683 14.3819C53.8347 14.1542 54.0624 13.9265 54.2142 13.6988C54.5937 13.0917 54.8972 12.4086 55.1249 11.6497C55.3526 10.8908 55.5044 10.1318 55.5044 9.3729C55.5803 8.2345 55.3526 7.0961 54.9731 5.9577C54.5937 4.8952 53.9865 3.90859 53.3035 3.07376C52.5446 2.23894 51.7097 1.5559 50.7231 1.02464C49.7365 0.493392 48.5981 0.265713 47.5356 0.189819C47.4597 0.189819 47.3079 0.189819 47.232 0.189819C47.1561 0.189819 47.0802 0.189819 47.0044 0.189819C46.8526 0.189819 46.6249 0.189819 46.4731 0.189819C46.3213 0.189819 46.1695 0.189819 45.9418 0.265712C45.7901 0.265712 45.6383 0.341606 45.4106 0.341606L21.8837 5.80592C21.3524 5.9577 20.8971 6.10949 20.4417 6.26128C19.2274 6.79253 18.1649 7.55146 17.2542 8.61397C16.3435 9.60058 15.7363 10.739 15.281 12.1051C14.8256 13.3952 14.6738 14.8372 14.6738 16.3551C14.7497 17.797 15.0533 19.239 15.5846 20.6051C15.8122 21.1363 16.0399 21.5917 16.2676 22.123L12.0176 23.8685C10.9551 24.3239 10.0444 24.931 9.28542 25.7658C8.45059 26.6766 7.84345 27.6632 7.46398 28.8775C7.08452 30.0917 6.93273 31.3819 7.00862 32.748C7.08452 34.1141 7.38809 35.4043 7.91934 36.6945C8.07113 36.998 8.14702 37.3016 8.29881 37.5293L3.74521 39.9579C3.13807 40.2614 2.60682 40.7168 2.07556 41.1722C1.31663 41.9311 0.785379 42.9177 0.405913 43.9802C0.0264464 45.0427 -0.0494468 46.257 0.0264465 47.5472C0.10234 48.7615 0.405913 49.9758 0.937165 51.1901C1.39252 52.3285 2.07556 53.391 2.8345 54.3776C3.59343 55.3642 4.50415 56.199 5.49076 56.8821C6.55326 57.5651 7.69166 58.0963 8.83006 58.324C9.43721 58.4758 10.0444 58.5517 10.6515 58.5517C11.1828 58.5517 11.714 58.4758 12.2453 58.3999C13.156 58.1722 13.9908 57.7928 14.7497 57.2615L17.3301 55.2883C17.7855 56.2749 18.3926 57.1856 19.0756 58.0205C19.9105 59.083 20.8971 59.9178 21.9596 60.6008C23.098 61.3598 24.3123 61.891 25.5266 62.1946C26.2096 62.3464 26.9685 62.4223 27.6516 62.4223C28.1828 62.4223 28.79 62.3464 29.3212 62.2705C30.5355 62.0428 31.598 61.5115 32.5087 60.8285C32.7364 60.6767 32.9641 60.449 33.1159 60.2972L35.0132 58.3999C35.0132 58.4758 35.0132 58.4758 35.0891 58.5517C35.5445 59.8419 36.3034 60.9803 37.2141 62.1187C38.1248 63.1812 39.1873 64.1678 40.3257 64.9267C41.54 65.6857 42.9061 66.2928 44.2722 66.5964C45.107 66.8241 45.9418 66.9 46.7767 66.9C47.3079 66.9 47.9151 66.8241 48.4463 66.7482C49.7365 66.5205 50.9508 66.0651 52.0133 65.3062C52.8481 64.7749 53.5312 64.016 54.1383 63.1812L68.7098 41.8552C68.8616 41.5516 69.0893 41.3239 69.2411 41.0204C69.3929 40.7168 69.5446 40.4132 69.6205 40.1097C69.6964 39.8061 69.8482 39.5025 69.8482 39.123C69.9241 38.8195 69.9241 38.44 70 38.0605C70 36.8462 69.8482 35.7078 69.4687 34.6453ZM17.4819 12.7881C17.7855 11.8015 18.3167 10.8908 18.9998 10.1318C19.6828 9.3729 20.4417 8.76575 21.3524 8.38629C22.2632 8.00682 23.2498 7.77914 24.3882 7.85504C25.4507 7.93093 26.5132 8.2345 27.4998 8.76575C28.4864 9.29701 29.3212 9.98005 30.0802 10.8908C30.8391 11.7256 31.4462 12.7881 31.8257 13.9265C32.2811 15.0649 32.5087 16.2033 32.5087 17.4935C32.5087 18.7078 32.2811 19.8462 31.9016 20.8328C31.5221 21.8194 30.915 22.7301 30.2319 23.4131C29.5489 24.0962 28.7141 24.6274 27.8034 24.931C26.8926 25.2346 25.906 25.3864 24.8435 25.2346C23.781 25.0828 22.7944 24.7792 21.8837 24.248C20.973 23.7167 20.1381 23.0337 19.4551 22.1989C18.7721 21.364 18.1649 20.4533 17.7855 19.3908C17.406 18.3283 17.1024 17.2658 17.1024 16.0515C16.9506 14.9131 17.1024 13.7747 17.4819 12.7881ZM14.9015 53.1633C14.5979 53.9222 14.2185 54.5294 13.6113 54.9847C13.0801 55.4401 12.4729 55.7437 11.714 55.9713C11.4104 56.0472 11.031 56.0472 10.6515 56.0472C10.1961 56.0472 9.81667 55.9713 9.36131 55.8954C8.52649 55.6678 7.69166 55.2883 6.85684 54.757C6.0979 54.2258 5.33897 53.5428 4.73183 52.7838C4.12468 52.0249 3.59343 51.1142 3.21396 50.2035C2.8345 49.2168 2.60682 48.2302 2.53092 47.3195C2.45503 46.3329 2.53092 45.4981 2.8345 44.6632C3.06218 43.9043 3.44164 43.2213 3.97289 42.7659C4.50415 42.2347 5.0354 41.8552 5.71844 41.7034C6.1738 41.5516 6.62916 41.4757 7.08452 41.4757C7.38809 41.4757 7.76756 41.4757 8.07113 41.5516C8.98185 41.7034 9.81667 42.0829 10.7274 42.6141C11.5622 43.1454 12.3211 43.8284 13.0042 44.6632C13.6872 45.4981 14.2185 46.4088 14.6738 47.3954C15.0533 48.382 15.281 49.4445 15.3569 50.4311C15.281 51.4177 15.2051 52.3285 14.9015 53.1633ZM16.7988 41.5516C15.8881 41.3998 14.9774 41.0204 14.0667 40.4891C13.2319 39.9579 12.4729 39.2748 11.7899 38.44C11.1069 37.6052 10.5756 36.6945 10.1202 35.7078C9.74078 34.6453 9.43721 33.5828 9.43721 32.5203C9.36131 31.4578 9.5131 30.4712 9.81667 29.5605C10.1202 28.6498 10.5756 27.8908 11.1069 27.2837C11.714 26.6766 12.397 26.2212 13.156 25.9176C13.7631 25.6899 14.3703 25.614 15.0533 25.614C15.281 25.614 15.5846 25.614 15.8122 25.6899C16.7988 25.8417 17.7855 26.1453 18.6962 26.6766C19.6069 27.2078 20.4417 27.9667 21.2007 28.8016C21.9596 29.7123 22.4908 30.6989 22.9462 31.7614C23.4016 32.8239 23.6292 33.9623 23.6292 35.1007C23.6292 36.2391 23.4775 37.2257 23.098 38.1364C22.7944 38.9713 22.2632 39.7302 21.656 40.3373C21.0489 40.9445 20.2899 41.3239 19.531 41.5516C19.0756 41.7034 18.5444 41.7793 18.0131 41.7793C17.5578 41.7034 17.1783 41.6275 16.7988 41.5516ZM32.5846 56.8821C32.2052 57.641 31.7498 58.324 31.0668 58.8553C30.4596 59.3865 29.7007 59.6901 28.8659 59.8419C28.4864 59.9178 28.1069 59.9178 27.7275 59.9178C27.1962 59.9178 26.665 59.8419 26.1337 59.766C25.1471 59.5383 24.2364 59.1589 23.3257 58.5517C22.4908 57.9446 21.656 57.2615 20.973 56.4267C20.2899 55.5919 19.7587 54.6812 19.3792 53.6945C18.9998 52.7079 18.7721 51.6454 18.6962 50.6588C18.6203 49.6722 18.7721 48.6856 19.1515 47.8508C19.4551 47.0159 19.9105 46.3329 20.5176 45.8016C21.1248 45.2704 21.8078 44.8909 22.6426 44.6632C23.1739 44.5115 23.6292 44.4356 24.2364 44.4356C24.6158 44.4356 25.0712 44.4356 25.4507 44.5115C26.4373 44.6632 27.4239 45.1186 28.4105 45.6499C29.3212 46.257 30.232 46.94 30.915 47.8508C31.6739 48.7615 32.2052 49.7481 32.6605 50.7347C33.04 51.7972 33.2677 52.8597 33.2677 53.9222C33.1159 55.1365 32.9641 56.0472 32.5846 56.8821ZM35.0132 44.815C33.9507 44.5874 32.8882 44.2079 31.9016 43.6007C30.9909 42.9936 30.0802 42.3106 29.3971 41.3998C28.6382 40.4891 28.1069 39.5025 27.6516 38.44C27.1962 37.3775 26.9685 36.2391 26.9685 35.1007C26.9685 33.9623 27.1203 32.8998 27.4998 31.9891C27.8793 31.0784 28.4105 30.2435 29.0936 29.5605C29.7766 28.8775 30.6114 28.4221 31.5221 28.1185C32.2052 27.8908 32.9641 27.7391 33.723 27.7391C34.0266 27.7391 34.3302 27.7391 34.6338 27.815C35.7722 27.9667 36.8347 28.3462 37.8972 28.8775C38.8838 29.4846 39.8704 30.2435 40.6293 31.1543C41.3883 32.065 42.0713 33.1275 42.4508 34.2659C42.9061 35.4043 43.1338 36.6186 43.0579 37.8329C43.0579 38.9713 42.8302 40.1097 42.3749 41.0204C41.9195 41.9311 41.3883 42.69 40.6293 43.3731C39.8704 43.9802 39.0356 44.4356 38.1248 44.6632C37.5936 44.815 36.9864 44.8909 36.4552 44.8909C35.9998 44.9668 35.5445 44.8909 35.0132 44.815ZM52.3928 61.1321C51.9374 61.9669 51.3303 62.6499 50.5713 63.1812C49.8124 63.7124 48.9017 64.0919 47.9151 64.2437C47.5356 64.3196 47.0802 64.3196 46.6249 64.3196C46.0177 64.3196 45.3347 64.2437 44.6517 64.0919C43.5133 63.8642 42.4508 63.4089 41.4641 62.7258C40.4775 62.1187 39.6427 61.3598 38.8838 60.449C38.1248 59.5383 37.5936 58.5517 37.1382 57.5651C36.7588 56.5026 36.5311 55.4401 36.5311 54.3776C36.5311 53.3151 36.7588 52.3285 37.1382 51.4936C37.5177 50.6588 38.049 49.8999 38.8079 49.3686C39.4909 48.7615 40.4016 48.382 41.3124 48.1543C41.8436 48.0025 42.4508 47.9267 43.0579 47.9267C43.5133 47.9267 44.0445 48.0025 44.5758 48.0784C45.7142 48.3061 46.8526 48.6856 47.9151 49.3686C48.9776 49.9758 49.8883 50.8106 50.7231 51.7213C51.5579 52.632 52.1651 53.6945 52.5446 54.8329C52.9999 55.9713 53.1517 57.1097 53.1517 58.2481C53.1517 59.2347 52.8481 60.2214 52.3928 61.1321Z" fill="#63666A"/>
</svg>
