<svg width="68" height="74" viewBox="0 0 68 74" fill="none" xmlns="http://www.w3.org/2000/svg">
<path d="M62.5666 45.5057C58.5341 45.7478 52.8828 45.9213 46.5743 46.0224C46.0649 52.7178 40.4607 58.0187 33.6244 58.0187C26.7882 58.0187 21.1916 52.7288 20.6745 46.0409C14.3188 45.947 8.66071 45.7808 4.68231 45.5423V48.245L10.5466 50.3263C10.832 50.4274 11.0633 50.6515 11.1861 50.9369L13.5926 56.7289C13.7118 57.0144 13.7046 57.3288 13.5745 57.6178L10.9007 63.24L15.4427 67.7819L21.0649 65.1081C21.3431 64.9781 21.6647 64.9708 21.9537 65.0901L22.2319 65.2021C24.3602 66.0909 25.5236 66.5715 27.7457 67.4784C28.0312 67.5976 28.2552 67.8289 28.3564 68.1179L30.4376 73.9931H36.8475L38.9396 68.1179C39.0408 67.8325 39.2648 67.5904 39.5502 67.4784C41.7905 66.5642 42.9539 66.0801 45.1182 65.1839L45.3386 65.09C45.6241 64.9708 45.9384 64.978 46.2275 65.1081L51.8497 67.7819L56.3916 63.24L53.7178 57.6178C53.5878 57.3395 53.5805 57.0179 53.6998 56.7289L56.1062 50.9369C56.2255 50.6514 56.4567 50.4274 56.7458 50.3262L62.6101 48.245V45.517L62.5666 45.5057Z" fill="#63666A"/>
<path d="M7.83655 28.7652V34.9077H59.416V28.7652C59.416 20.339 55.2536 12.4585 48.428 7.65682L50.325 19.4505C50.419 20.0431 50.0215 20.5959 49.4289 20.7007C49.3747 20.7115 49.3097 20.7188 49.2519 20.7188C48.7243 20.7188 48.2619 20.3394 48.1787 19.8046L45.8554 5.40247C45.6783 4.32929 44.9412 3.48746 43.9692 3.14419L46.1155 16.4622C46.2094 17.0548 45.812 17.6077 45.2194 17.7125C44.6268 17.8064 44.0632 17.409 43.9692 16.8164L41.7868 3.23748C41.4832 1.35863 39.8826 0 37.9856 0H29.2812C27.377 0 25.7763 1.35863 25.4801 3.23748L23.2976 16.8164C23.2145 17.3511 22.752 17.7305 22.2244 17.7305C22.1702 17.7305 22.1124 17.7305 22.0474 17.7125C21.4548 17.6185 21.0502 17.0549 21.1513 16.4622L23.2976 3.14419C22.3256 3.47662 21.5776 4.31847 21.4114 5.39165L19.0881 19.8012C19.005 20.336 18.5425 20.7154 18.0149 20.7154C17.9607 20.7154 17.9029 20.7154 17.8379 20.6973C17.2453 20.6033 16.8406 20.0397 16.9418 19.4471L18.8388 7.65339C12.0133 12.4554 7.85076 20.336 7.85076 28.7617L7.83655 28.7652Z" fill="#63666A"/>
<path d="M67.2498 41.3358C67.2498 40.4758 66.7331 39.7062 65.9346 39.3846L60.2906 37.083L6.95919 37.0793L1.31525 39.381C0.520336 39.7062 0 40.4722 0 41.3322C0 42.268 0.67568 43.0232 1.57175 43.1171C12.0325 44.2192 54.5563 44.2011 65.6636 43.0882C66.5597 42.9943 67.2462 42.2464 67.2462 41.3322L67.2498 41.3358Z" fill="#63666A"/>
</svg>
