<svg width="63" height="63" viewBox="0 0 63 63" fill="none" xmlns="http://www.w3.org/2000/svg">
<g clip-path="url(#clip0_2_797)">
<path d="M47.8014 5.88002L46.4364 9.21377L49.1926 11.97L60.4275 0.721898L60.0862 0.380648C59.6794 -0.013102 59.0756 -0.104977 58.5638 0.144398L48.4314 5.19752C48.1558 5.3419 47.9326 5.57815 47.8014 5.88002Z" fill="#63666A"/>
<path d="M45.0551 11.5399L33.4637 23.1315L39.8858 29.5537L51.4773 17.9621L45.0551 11.5399Z" fill="#63666A"/>
<path d="M62.2781 2.58557L51.0432 13.8206L53.7863 16.5637L57.12 15.1987C57.4219 15.0674 57.6581 14.8443 57.8025 14.5687L62.8556 4.4362C63.1181 3.92432 63.0131 3.32057 62.6193 2.92682L62.2781 2.58557Z" fill="#63666A"/>
<path d="M32.7603 41.7506C32.4059 41.5144 32.0778 41.2387 31.7628 40.9237L21.9454 31.1062C21.6829 30.8437 21.4467 30.5681 21.2367 30.2662L1.85131 49.7831C0.499448 51.135 -0.143669 52.9987 0.0269541 55.0462C0.197577 57.015 1.10319 58.9181 2.59942 60.4012C4.30565 62.1206 6.4975 62.9869 8.58435 62.9869C10.3168 62.9869 11.9837 62.3831 13.2174 61.1494L32.7603 41.7506Z" fill="#63666A"/>
<path d="M29.8466 23.2181C28.2322 21.6037 25.4104 21.6037 23.796 23.2181C22.1292 24.885 22.1292 27.5887 23.796 29.2556L33.6134 39.0731C34.414 39.8737 35.4903 40.32 36.6321 40.32C37.774 40.32 38.8502 39.8737 39.6508 39.0731C41.3177 37.4062 41.3177 34.6894 39.6508 33.0225L29.8466 23.2181Z" fill="#63666A"/>
</g>
<defs>
<clipPath id="clip0_2_797">
<rect width="63" height="63" fill="white"/>
</clipPath>
</defs>
</svg>
