<svg width="67" height="67" viewBox="0 0 67 67" fill="none" xmlns="http://www.w3.org/2000/svg">
<path d="M0 62.1259H67V67.0004H0V62.1259Z" fill="#63666A"/>
<path d="M20.1754 28.0304C20.1754 35.3913 26.1393 41.355 33.5 41.355C40.8607 41.355 46.8247 35.3911 46.8247 28.0304C46.8247 20.6794 33.5 0.00012207 33.5 0.00012207C33.5 0.00012207 20.1754 20.6788 20.1754 28.0304Z" fill="#63666A"/>
<path d="M11.1462 37.3928C13.1909 38.0045 14.7384 38.9336 15.7427 39.6533C15.6838 39.3785 13.8746 31.1117 12.059 29.2926C10.2172 27.4508 7.23361 27.4508 5.38516 29.2926C3.57599 31.1018 3.87699 34.5107 5.38516 35.9599C6.60867 37.1442 8.03183 36.4637 11.1462 37.3928Z" fill="#63666A"/>
<path d="M3.49408 47.4043C3.82777 48.7096 5.15928 49.4981 6.46787 49.1545C6.61182 49.1218 6.7623 49.0629 6.89644 49.004C10.3479 47.3879 14.5844 47.1622 18.4548 48.618C22.3151 50.0509 25.7077 53.1588 27.5073 57.2191C26.4866 52.9073 23.6143 48.8769 19.5249 46.4397C15.4716 43.9697 10.2371 43.1485 5.33015 44.4113L5.2549 44.4277C3.94631 44.7646 3.15789 46.0961 3.49481 47.4047L3.49408 47.4043Z" fill="#63666A"/>
<path d="M61.6149 29.2958C59.7731 27.454 56.783 27.454 54.941 29.2958C53.1319 31.105 51.3163 39.3785 51.2574 39.6565C52.2617 38.9433 53.8124 38.0076 55.8538 37.3959C58.9683 36.4668 60.3947 37.1538 61.6149 35.9729C63.1133 34.5138 63.4241 31.105 61.6149 29.2958Z" fill="#63666A"/>
<path d="M39.4965 57.218C41.2957 53.1548 44.6883 50.0502 48.549 48.6169C52.4192 47.161 56.6557 47.3867 60.1073 49.0029C60.2415 49.0618 60.392 49.1207 60.5359 49.1534C61.8412 49.4871 63.1727 48.7019 63.5097 47.4032C63.8434 46.0979 63.0582 44.7664 61.7595 44.4294L61.6842 44.413C56.777 43.147 51.543 43.9779 47.4895 46.4414C43.3903 48.8753 40.5179 52.9059 39.4972 57.2175L39.4965 57.218Z" fill="#63666A"/>
</svg>
